<?xml version="1.0" standalone="no"?><!DOCTYPE svg PUBLIC "-//W3C//DTD SVG 1.1//EN" "http://www.w3.org/Graphics/SVG/1.1/DTD/svg11.dtd"><svg t="1717728547714" class="icon" viewBox="0 0 1024 1024" version="1.1" xmlns="http://www.w3.org/2000/svg" p-id="1413" xmlns:xlink="http://www.w3.org/1999/xlink" width="200" height="200"><path d="M607.978667 341.333333c-26.304 0-50.581333 13.994667-62.72 38.058667l-52.693334 103.765333a49.344 49.344 0 0 1-37.333333 26.325334l-117.888 16.64c-57.408 8.064-80.426667 77.098667-38.656 116.608l85.226667 80.810666c11.626667 11.050667 16.917333 26.816 14.165333 42.24l-20.117333 114.176c-7.552 42.645333 26.410667 79.978667 68.949333 79.978667 11.136 0 22.186667-2.666667 32.448-7.893333l105.472-53.909334a51.050667 51.050667 0 0 1 46.293333 0l105.429334 53.973334c10.282667 5.226667 21.354667 7.893333 32.490666 7.893333 42.517333 0 76.501333-37.397333 68.949334-80l-20.117334-114.112a46.933333 46.933333 0 0 1 14.144-42.24l85.333334-80.874667c41.728-39.552 18.688-108.501333-38.698667-116.586666l-117.845333-16.64a49.493333 49.493333 0 0 1-37.376-26.325334l-52.714667-103.829333C658.538667 355.328 634.325333 341.333333 607.978667 341.333333z" fill="#FF8200" fill-opacity=".1" p-id="1414"></path><path d="M511.978667 106.666667c-33.941333 0-65.28 18.346667-80.917334 49.877333l-67.989333 135.978667a63.701333 63.701333 0 0 1-48.170667 34.474666L162.773333 348.8c-74.112 10.581333-103.808 101.034667-49.92 152.789333l109.994667 105.898667a61.952 61.952 0 0 1 18.261333 55.36l-25.962666 149.610667c-9.728 55.850667 34.090667 104.789333 88.96 104.789333a90.88 90.88 0 0 0 41.898666-10.325333l136.064-70.656a65.066667 65.066667 0 0 1 29.866667-7.296c10.325333 0 20.629333 2.496 29.888 7.296l136.021333 70.698666a90.944 90.944 0 0 0 41.941334 10.368c54.826667 0 98.709333-49.002667 88.96-104.832l-25.941334-149.525333a62.101333 62.101333 0 0 1 18.218667-55.36l110.122667-105.962667c53.824-51.84 24.106667-142.165333-49.92-152.746666l-152.085334-21.824a63.914667 63.914667 0 0 1-48.213333-34.474667l-68.010667-136.064C577.194667 125.013333 545.962667 106.666667 511.978667 106.666667z m0 62.357333c10.837333 0 20.16 5.461333 25.088 15.36l68.032 136.085333a126.336 126.336 0 0 0 95.232 68.330667l152.042666 21.824c22.784 3.242667 31.744 30.464 15.466667 46.122667l-110.08 105.941333a124.416 124.416 0 0 0-36.458667 110.933333l25.941334 149.568c2.944 16.789333-10.474667 31.786667-27.434667 31.786667-4.373333 0-8.789333-1.066667-13.162667-3.349333l-136-70.677334a127.573333 127.573333 0 0 0-58.666666-14.336 127.573333 127.573333 0 0 0-58.666667 14.314667l-136.042667 70.634667a28.373333 28.373333 0 0 1-13.141333 3.328c-16.981333 0-30.378667-14.933333-27.434667-31.765334l25.941334-149.589333a124.245333 124.245333 0 0 0-36.437334-110.933333l-110.016-105.941334c-16.298667-15.637333-7.36-42.88 15.445334-46.122666l152.106666-21.824a126.101333 126.101333 0 0 0 95.210667-68.373334l68.010667-136.021333c4.864-9.813333 14.229333-15.296 25.024-15.296z" fill="#FF8200" p-id="1415"></path></svg>