<?xml version="1.0" standalone="no"?><!DOCTYPE svg PUBLIC "-//W3C//DTD SVG 1.1//EN" "http://www.w3.org/Graphics/SVG/1.1/DTD/svg11.dtd"><svg t="1717728507165" class="icon" viewBox="0 0 1024 1024" version="1.1" xmlns="http://www.w3.org/2000/svg" p-id="1263" xmlns:xlink="http://www.w3.org/1999/xlink" width="200" height="200"><path d="M661.333333 661.333333m-298.666666 0a298.666667 298.666667 0 1 0 597.333333 0 298.666667 298.666667 0 1 0-597.333333 0Z" fill="#1890FF" opacity=".1" p-id="1264"></path><path d="M512 106.666667c223.850667 0 405.333333 181.482667 405.333333 405.333333s-181.482667 405.333333-405.333333 405.333333c-104.32 0-202.496-39.616-277.098667-109.504a32 32 0 0 1 43.776-46.698666A339.968 339.968 0 0 0 512 853.333333c188.522667 0 341.333333-152.810667 341.333333-341.333333S700.522667 170.666667 512 170.666667C324.48 170.666667 172.266667 321.877333 170.666667 509.013333l41.066666-40.96a32 32 0 0 1 42.965334-2.090666l2.282666 2.069333a32 32 0 0 1 2.069334 42.986667l-2.069334 2.282666-75.434666 75.413334a53.333333 53.333333 0 0 1-72.853334 2.410666l-2.56-2.410666-75.434666-75.413334a32 32 0 0 1 42.986666-47.338666l2.282667 2.069333 30.912 30.933333C113.749333 281.152 292.48 106.666667 512 106.666667z m-10.666667 170.666666A32 32 0 0 1 533.333333 309.333333v178.602667l126.613334 126.592a32 32 0 0 1 2.197333 42.837333l-2.197333 2.432a32 32 0 0 1-45.269334 0l-134.293333-134.272A31.936 31.936 0 0 1 469.333333 501.333333v-192A32 32 0 0 1 501.333333 277.333333z" fill="#1890FF" p-id="1265"></path></svg>