<?xml version="1.0" standalone="no"?><!DOCTYPE svg PUBLIC "-//W3C//DTD SVG 1.1//EN" "http://www.w3.org/Graphics/SVG/1.1/DTD/svg11.dtd"><svg t="1717728582217" class="icon" viewBox="0 0 1024 1024" version="1.1" xmlns="http://www.w3.org/2000/svg" p-id="1565" xmlns:xlink="http://www.w3.org/1999/xlink" width="200" height="200"><path d="M901.717333 725.333333l-64.768 112.170667a128 128 0 0 1-110.848 64h-129.536a128 128 0 0 1-110.848-64L420.949333 725.333333a128 128 0 0 1 0-128l64.768-112.170666a128 128 0 0 1 110.848-64h129.536a128 128 0 0 1 110.848 64L901.717333 597.333333a128 128 0 0 1 0 128z" fill="#1890FF" opacity=".1" p-id="1566"></path><path d="M651.434667 142.506667a128 128 0 0 1 110.848 64L901.717333 448a128 128 0 0 1 0 128l-139.434666 241.493333a128 128 0 0 1-110.848 64H372.565333a128 128 0 0 1-110.848-64L122.282667 576a128 128 0 0 1 0-128l139.434666-241.493333a128 128 0 0 1 110.848-64h278.869334z m0 64H372.565333a64 64 0 0 0-55.424 32L177.706667 480a64 64 0 0 0 0 64l139.434666 241.493333a64 64 0 0 0 55.424 32h278.869334a64 64 0 0 0 55.424-32L846.293333 544a64 64 0 0 0 0-64l-139.434666-241.493333a64 64 0 0 0-55.424-32zM512 394.666667a117.333333 117.333333 0 1 1 0 234.666666 117.333333 117.333333 0 0 1 0-234.666666z m0 64a53.333333 53.333333 0 1 0 0 106.666666 53.333333 53.333333 0 0 0 0-106.666666z" fill="#1890FF" p-id="1567"></path></svg>