<svg xmlns="http://www.w3.org/2000/svg" xmlns:xlink="http://www.w3.org/1999/xlink" width="50" height="50" viewBox="0 0 50 50" fill="none">
<path d="M0 25C0 25.4091 0.0100378 25.8181 0.0301136 26.2267C0.0501895 26.6354 0.0802788 27.0433 0.120382 27.4504C0.160485 27.8576 0.210554 28.2635 0.270587 28.6683C0.330621 29.073 0.400548 29.476 0.480368 29.8772C0.560185 30.2786 0.649805 30.6776 0.749219 31.0745C0.848633 31.4714 0.957725 31.8656 1.07649 32.2571C1.19526 32.6486 1.32356 33.037 1.4614 33.4222C1.59923 33.8075 1.74644 34.1891 1.90301 34.5671C2.05958 34.9451 2.22534 35.319 2.40027 35.6889C2.5752 36.0587 2.7591 36.4241 2.95197 36.7849C3.14483 37.1458 3.34644 37.5016 3.55678 37.8525C3.76712 38.2035 3.98595 38.5491 4.21326 38.8893C4.44057 39.2294 4.67609 39.5638 4.91982 39.8925C5.16353 40.2211 5.41518 40.5436 5.67476 40.8598C5.93428 41.1761 6.20146 41.4858 6.47622 41.789C6.75098 42.0921 7.03301 42.3884 7.32231 42.6777C7.61162 42.967 7.90786 43.249 8.21103 43.5238C8.51421 43.7985 8.82393 44.0657 9.14018 44.3252C9.45644 44.5848 9.77891 44.8365 10.1075 45.0802C10.4361 45.3239 10.7706 45.5594 11.1107 45.7867C11.4509 46.014 11.7965 46.2329 12.1474 46.4432C12.4983 46.6536 12.8542 46.8552 13.2151 47.048C13.5759 47.2409 13.9413 47.4248 14.3111 47.5997C14.681 47.7747 15.0549 47.9404 15.4329 48.097C15.8109 48.2536 16.1925 48.4007 16.5777 48.5386C16.963 48.6764 17.3514 48.8047 17.7429 48.9233C18.1344 49.042 18.5286 49.1514 18.9255 49.251C19.3224 49.3501 19.7214 49.4399 20.1228 49.5195C20.524 49.5991 20.927 49.6694 21.3317 49.7295C21.7365 49.7896 22.1424 49.8394 22.5496 49.8794C22.9567 49.9199 23.3646 49.9497 23.7733 49.9697C24.1819 49.9897 24.5909 50 25 50C25.4091 50 25.8181 49.9897 26.2267 49.9697C26.6353 49.9497 27.0433 49.9199 27.4504 49.8794C27.8576 49.8394 28.2635 49.7896 28.6683 49.7295C29.073 49.6694 29.476 49.5991 29.8772 49.5195C30.2786 49.4399 30.6776 49.3501 31.0745 49.251C31.4714 49.1514 31.8656 49.042 32.2571 48.9233C32.6486 48.8047 33.037 48.6764 33.4222 48.5386C33.8075 48.4007 34.1891 48.2536 34.5671 48.097C34.9451 47.9404 35.319 47.7747 35.6889 47.5997C36.0587 47.4248 36.4241 47.2409 36.7849 47.048C37.1457 46.8552 37.5016 46.6536 37.8525 46.4432C38.2035 46.2329 38.5491 46.014 38.8893 45.7867C39.2294 45.5594 39.5638 45.3239 39.8925 45.0802C40.2211 44.8365 40.5436 44.5848 40.8598 44.3252C41.1761 44.0657 41.4858 43.7985 41.789 43.5238C42.0921 43.249 42.3884 42.967 42.6777 42.6777C42.967 42.3884 43.249 42.0921 43.5238 41.789C43.7985 41.4858 44.0657 41.1761 44.3252 40.8598C44.5848 40.5436 44.8365 40.2211 45.0802 39.8925C45.3239 39.5638 45.5594 39.2294 45.7867 38.8893C46.014 38.5491 46.2329 38.2035 46.4432 37.8525C46.6536 37.5016 46.8552 37.1458 47.048 36.7849C47.2409 36.4241 47.4248 36.0587 47.5997 35.6889C47.7747 35.319 47.9404 34.9451 48.097 34.5671C48.2536 34.1891 48.4007 33.8075 48.5386 33.4223C48.6764 33.037 48.8047 32.6486 48.9233 32.2571C49.042 31.8656 49.1514 31.4714 49.251 31.0745C49.3501 30.6776 49.4399 30.2786 49.5195 29.8772C49.5991 29.476 49.6694 29.073 49.7295 28.6683C49.7895 28.2635 49.8394 27.8576 49.8794 27.4504C49.9199 27.0433 49.9497 26.6354 49.9697 26.2267C49.9897 25.8181 50 25.4091 50 25C50 24.5909 49.9897 24.1819 49.9697 23.7733C49.9497 23.3646 49.9199 22.9567 49.8794 22.5496C49.8394 22.1424 49.7895 21.7365 49.7295 21.3317C49.6694 20.927 49.5991 20.524 49.5195 20.1228C49.4399 19.7214 49.3501 19.3224 49.251 18.9255C49.1514 18.5286 49.042 18.1344 48.9233 17.7429C48.8047 17.3514 48.6764 16.963 48.5386 16.5777C48.4007 16.1925 48.2536 15.8109 48.097 15.4329C47.9404 15.0549 47.7747 14.681 47.5997 14.3111C47.4248 13.9413 47.2409 13.5759 47.048 13.2151C46.8552 12.8542 46.6536 12.4983 46.4432 12.1474C46.2329 11.7965 46.014 11.4509 45.7867 11.1107C45.5594 10.7706 45.3239 10.4361 45.0802 10.1075C44.8365 9.77891 44.5848 9.45645 44.3252 9.14019C44.0657 8.82393 43.7985 8.51421 43.5238 8.21103C43.249 7.90786 42.967 7.61162 42.6777 7.32231C42.3884 7.03301 42.0921 6.75098 41.789 6.47622C41.4858 6.20146 41.1761 5.93428 40.8598 5.67476C40.5436 5.41519 40.2211 5.16353 39.8925 4.91982C39.5638 4.67609 39.2294 4.44057 38.8893 4.21326C38.5491 3.98595 38.2035 3.76712 37.8525 3.55678C37.5016 3.34644 37.1457 3.14483 36.7849 2.95197C36.4241 2.7591 36.0587 2.5752 35.6889 2.40027C35.319 2.22534 34.9451 2.05958 34.5671 1.90301C34.1891 1.74644 33.8075 1.59923 33.4223 1.4614C33.037 1.32356 32.6486 1.19526 32.2571 1.07649C31.8656 0.957725 31.4714 0.848633 31.0745 0.749219C30.6776 0.649805 30.2786 0.560186 29.8772 0.480368C29.476 0.400548 29.073 0.330621 28.6683 0.270587C28.2635 0.210554 27.8576 0.160485 27.4504 0.120382C27.0433 0.0802788 26.6353 0.0501895 26.2267 0.0301136C25.8181 0.0100378 25.4091 0 25 0C24.5909 0 24.1819 0.0100378 23.7733 0.0301136C23.3646 0.0501895 22.9567 0.0802788 22.5496 0.120382C22.1424 0.160485 21.7365 0.210554 21.3317 0.270587C20.927 0.330621 20.524 0.400548 20.1228 0.480368C19.7214 0.560186 19.3224 0.649805 18.9255 0.749219C18.5286 0.848633 18.1344 0.957725 17.7429 1.07649C17.3514 1.19526 16.963 1.32356 16.5777 1.4614C16.1925 1.59923 15.8109 1.74644 15.4329 1.90301C15.0549 2.05958 14.681 2.22534 14.3111 2.40027C13.9413 2.5752 13.5759 2.7591 13.2151 2.95197C12.8542 3.14483 12.4983 3.34644 12.1474 3.55678C11.7965 3.76712 11.4509 3.98595 11.1107 4.21326C10.7706 4.44057 10.4361 4.67609 10.1075 4.91982C9.77891 5.16353 9.45644 5.41519 9.14018 5.67476C8.82393 5.93428 8.51421 6.20146 8.21103 6.47622C7.90786 6.75098 7.61162 7.03301 7.32231 7.32231C7.03301 7.61162 6.75098 7.90786 6.47622 8.21103C6.20146 8.51421 5.93428 8.82393 5.67476 9.14019C5.41518 9.45645 5.16353 9.77891 4.91982 10.1075C4.67609 10.4361 4.44057 10.7706 4.21326 11.1107C3.98595 11.4509 3.76712 11.7965 3.55678 12.1474C3.34644 12.4983 3.14483 12.8542 2.95197 13.2151C2.7591 13.5759 2.5752 13.9413 2.40027 14.3111C2.22534 14.681 2.05958 15.0549 1.90301 15.4329C1.74644 15.8109 1.59923 16.1925 1.4614 16.5777C1.32356 16.963 1.19526 17.3514 1.07649 17.7429C0.957725 18.1344 0.848633 18.5286 0.749219 18.9255C0.649805 19.3224 0.560185 19.7214 0.480368 20.1228C0.400548 20.524 0.330621 20.927 0.270587 21.3317C0.210554 21.7365 0.160485 22.1424 0.120382 22.5496C0.0802788 22.9567 0.0501895 23.3646 0.0301136 23.7733C0.0100378 24.1819 0 24.5909 0 25Z"   fill="#3889FF" >
</path>
<path d="M24.7852 17.2852C24.7852 12.8662 21.5771 9.28711 17.6221 9.28711C13.667 9.28711 10.4639 12.8711 10.4639 17.2852C10.4639 21.04 12.7783 24.1895 15.9033 25.0488L15.6982 38.999C15.6836 39.9414 16.4404 40.708 17.3828 40.708L17.8711 40.708C18.8135 40.708 19.5703 39.9365 19.5557 38.999L19.3506 25.0488C22.4707 24.1895 24.7852 21.04 24.7852 17.2852Z"   fill="#FFFFFF" >
</path>
<path d="M36.2549 9.29199L36.2549 19.4141C36.2549 19.9463 35.8252 20.376 35.293 20.376C34.7607 20.376 34.3311 19.9463 34.3311 19.4141L34.3311 9.28711L31.8652 9.28711L31.8652 19.4141C31.8652 19.9463 31.4355 20.376 30.9033 20.376C30.3711 20.376 29.9414 19.9463 29.9414 19.4141L29.9414 9.29199C28.1104 9.38965 26.6553 10.9082 26.6553 12.7637L26.6553 18.0762C26.6553 21.0449 28.6621 23.54 31.3916 24.292L31.1768 38.999C31.1621 39.9414 31.9189 40.708 32.8613 40.708L33.3496 40.708C34.292 40.708 35.0488 39.9365 35.0342 38.999L34.8193 24.292C37.5488 23.54 39.5557 21.0449 39.5557 18.0762L39.5557 12.7637C39.5361 10.9082 38.0859 9.39453 36.2549 9.29199Z"   fill="#FFFFFF" >
</path>
</svg>
