<?xml version="1.0" standalone="no"?><!DOCTYPE svg PUBLIC "-//W3C//DTD SVG 1.1//EN" "http://www.w3.org/Graphics/SVG/1.1/DTD/svg11.dtd"><svg t="1717727876749" class="icon" viewBox="0 0 1024 1024" version="1.1" xmlns="http://www.w3.org/2000/svg" p-id="5312" xmlns:xlink="http://www.w3.org/1999/xlink" width="200" height="200"><path d="M512 0c282.752 0 512 229.248 512 512S794.752 1024 512 1024 0 794.752 0 512 229.248 0 512 0z" fill="#32ABD1" p-id="5313"></path><path d="M276.544 672.6016a33.536 33.536 0 0 1-14.976-27.904v-257.024h-48.64c-12.928 0-23.424 10.496-23.424 23.424v304.64c0 12.928 10.496 23.424 23.424 23.424h163.968l-100.352-66.56z" fill="#CCEBF4" p-id="5314"></path><path d="M443.456 756.0576l-145.28-96.512c-9.344-6.144-14.976-16.64-14.976-27.904v-335.872a33.4848 33.4848 0 0 1 52.096-27.904l104.96 69.632a123.7248 123.7248 0 0 1 55.296 103.04v287.488c0 18.56-14.976 33.536-33.536 33.536-6.656 0.128-13.056-1.92-18.56-5.504" fill="#FFFFFF" p-id="5315"></path><path d="M747.584 672.6016a33.536 33.536 0 0 0 14.976-27.904v-257.024h48.64c12.928 0 23.424 10.496 23.424 23.424v304.64c0 12.928-10.496 23.424-23.424 23.424h-163.968l100.352-66.56z" fill="#CCEBF4" p-id="5316"></path><path d="M580.8 756.0576l145.28-96.512c9.344-6.144 14.976-16.64 14.976-27.904v-335.872a33.4848 33.4848 0 0 0-52.096-27.904l-104.96 69.632a123.7248 123.7248 0 0 0-55.296 103.04v287.488c0 18.56 14.976 33.536 33.536 33.536 6.528 0.128 13.056-1.92 18.56-5.504" fill="#FFFFFF" p-id="5317"></path></svg>