<?xml version="1.0" standalone="no"?><!DOCTYPE svg PUBLIC "-//W3C//DTD SVG 1.1//EN" "http://www.w3.org/Graphics/SVG/1.1/DTD/svg11.dtd"><svg t="1717728086083" class="icon" viewBox="0 0 1060 1024" version="1.1" xmlns="http://www.w3.org/2000/svg" p-id="22165" xmlns:xlink="http://www.w3.org/1999/xlink" width="207.03125" height="200"><path d="M530.761143 0c-282.624 0-512 229.376-512 512s229.376 512 512 512 512-229.376 512-512-229.376-512-512-512z m266.752 536.576l-219.136 99.84c-25.088 11.264-66.048 11.264-91.136 0l-219.136-99.84c-26.112-11.776-26.112-31.232 0-43.008l47.104-21.504a25.6 25.6 0 0 1 19.456 0l160.256 72.192c25.088 7.68 51.712 7.68 76.8 0l159.744-72.192a25.6 25.6 0 0 1 19.456 0l47.104 21.504c25.6 11.776 25.6 30.72-0.512 43.008z m0.512 153.6l-219.136 99.84c-25.088 11.264-66.048 11.264-91.136 0l-219.136-99.84c-26.112-11.776-26.112-31.232 0-43.008l51.712-23.552a21.686857 21.686857 0 0 1 19.456 0l147.968 67.584c25.088 11.264 66.048 11.264 91.136 0l147.456-67.584a25.6 25.6 0 0 1 19.456 0l51.712 23.552c26.112 11.776 26.112 31.232 0.512 43.008z m0-307.712l-219.136 99.84c-25.088 11.264-66.048 11.264-91.136 0l-219.136-99.84c-26.112-11.776-26.112-31.232 0-43.008l221.184-100.864c24.064-10.752 62.976-10.752 87.04 0l221.184 100.864c25.6 11.776 25.6 31.232 0 43.008z" fill="#118FB5" p-id="22166"></path></svg>