<?xml version="1.0" standalone="no"?><!DOCTYPE svg PUBLIC "-//W3C//DTD SVG 1.1//EN" "http://www.w3.org/Graphics/SVG/1.1/DTD/svg11.dtd"><svg t="1717728019223" class="icon" viewBox="0 0 1024 1024" version="1.1" xmlns="http://www.w3.org/2000/svg" p-id="14006" xmlns:xlink="http://www.w3.org/1999/xlink" width="200" height="200"><path d="M512 512m-512 0a512 512 0 1 0 1024 0 512 512 0 1 0-1024 0Z" fill="#6D71F9" p-id="14007"></path><path d="M481.645714 270.427429c0-28.324571-34.505143-44.068571-55.533714-23.04l-173.275429 175.616c-20.297143 20.370286-19.968 52.992-0.164571 73.325714l268.909714 268.617143c4.48 4.48 11.52 8.868571 20.992 8.868571H734.354286a51.931429 51.931429 0 0 0 51.931428-51.931428v-12.708572c0.292571-79.122286-57.874286-144.822857-134.125714-156.379428l-1.956571-117.686858a24.356571 24.356571 0 0 0-21.302858-23.771428c-80.054857-10.093714-147.273143-67.035429-147.273142-140.617143v-0.292571z" fill="#FFFFFF" p-id="14008"></path><path d="M278.418286 442.203429a20.571429 20.571429 0 0 1 29.074285 0.786285l238.756572 252.013715c1.28 1.371429 3.108571 2.139429 4.973714 2.139428H731.428571a20.571429 20.571429 0 0 1 0 41.142857h-180.205714c-13.165714 0-25.782857-5.412571-34.834286-14.994285L277.632 471.296a20.571429 20.571429 0 0 1 0.786286-29.074286z" fill="#6D71F9" p-id="14009"></path></svg>