<?xml version="1.0" standalone="no"?><!DOCTYPE svg PUBLIC "-//W3C//DTD SVG 1.1//EN" "http://www.w3.org/Graphics/SVG/1.1/DTD/svg11.dtd"><svg t="1717728903753" class="icon" viewBox="0 0 1024 1024" version="1.1" xmlns="http://www.w3.org/2000/svg" p-id="1668" xmlns:xlink="http://www.w3.org/1999/xlink" width="200" height="200"><path d="M868.181333 505.344V460.8h85.333334a20.821333 20.821333 0 0 0 3.242666-31.744 21.162667 21.162667 0 0 0-3.754666-2.901333L514.56 73.216 68.266667 428.885333A20.821333 20.821333 0 0 0 69.973333 460.8h85.333334v26.453333l1.365333 394.069334v1.877333a81.237333 81.237333 0 0 0 80.554667 67.242667h550.229333c80.725333 0 80.725333-53.248 80.725333-100.181334V505.344zM433.834667 934.229333V705.706667A73.386667 73.386667 0 0 1 512 636.245333c75.605333 0 77.994667 66.218667 77.994667 66.218667v231.936z" fill="#2c2c2c" p-id="1669"></path></svg>