<?xml version="1.0" standalone="no"?><!DOCTYPE svg PUBLIC "-//W3C//DTD SVG 1.1//EN" "http://www.w3.org/Graphics/SVG/1.1/DTD/svg11.dtd"><svg t="1717729038027" class="icon" viewBox="0 0 1024 1024" version="1.1" xmlns="http://www.w3.org/2000/svg" p-id="2178" xmlns:xlink="http://www.w3.org/1999/xlink" width="200" height="200"><path d="M537.770667 110.762667m52.906666 0l250.026667 0q52.906667 0 52.906667 52.906666l0 252.416q0 52.906667-52.906667 52.906667l-250.026667 0q-52.906667 0-52.906666-52.906667l0-252.416q0-52.906667 52.906666-52.906666Z" fill="#1296db" p-id="2179"></path><path d="M115.882667 110.762667m52.906666 0l250.026667 0q52.906667 0 52.906667 52.906666l0 252.416q0 52.906667-52.906667 52.906667l-250.026667 0q-52.906667 0-52.906666-52.906667l0-252.416q0-52.906667 52.906666-52.906666Z" fill="#1296db" p-id="2180"></path><path d="M115.882667 531.797333m52.906666 0l250.026667 0q52.906667 0 52.906667 52.906667l0 252.416q0 52.906667-52.906667 52.906667l-250.026667 0q-52.906667 0-52.906666-52.906667l0-252.416q0-52.906667 52.906666-52.906667Z" fill="#1296db" p-id="2181"></path><path d="M855.722667 841.386667a183.808 183.808 0 1 0-29.525334 24.746666l41.642667 41.642667a18.944 18.944 0 0 0 13.482667 5.632 19.114667 19.114667 0 0 0 13.653333-32.768zM819.2 827.904a18.261333 18.261333 0 0 0-2.389333 1.706667 144.213333 144.213333 0 1 1 2.901333-2.218667z" fill="#1296db" p-id="2182"></path></svg>