<?xml version="1.0" standalone="no"?><!DOCTYPE svg PUBLIC "-//W3C//DTD SVG 1.1//EN" "http://www.w3.org/Graphics/SVG/1.1/DTD/svg11.dtd"><svg t="1717728862421" class="icon" viewBox="0 0 1024 1024" version="1.1" xmlns="http://www.w3.org/2000/svg" p-id="1152" xmlns:xlink="http://www.w3.org/1999/xlink" width="200" height="200"><path d="M512 69.802667c-246.442667 0-447.146667 173.226667-447.146667 386.048 0 121.856 68.266667 237.909333 181.248 310.613333l2.389334 1.194667a585.045333 585.045333 0 0 0 84.48 40.618666l-20.138667 119.466667a22.528 22.528 0 0 0 22.186667 26.282667 22.186667 22.186667 0 0 0 12.117333-3.584l170.666667-108.714667c244.394667-2.901333 441.344-174.933333 441.344-385.877333S758.442667 69.802667 512 69.802667z m134.656 472.576H377.344a22.528 22.528 0 1 1 0-45.056h269.312a22.528 22.528 0 1 1 0 45.056z m29.866667-130.56H347.477333a22.528 22.528 0 0 1 0-45.226667h329.045334a22.528 22.528 0 0 1 0 45.226667z" fill="#2c2c2c" p-id="1153"></path></svg>