<?xml version="1.0" standalone="no"?><!DOCTYPE svg PUBLIC "-//W3C//DTD SVG 1.1//EN" "http://www.w3.org/Graphics/SVG/1.1/DTD/svg11.dtd"><svg t="1717728887056" class="icon" viewBox="0 0 1024 1024" version="1.1" xmlns="http://www.w3.org/2000/svg" p-id="1410" xmlns:xlink="http://www.w3.org/1999/xlink" width="200" height="200"><path d="M621.397333 577.536A260.096 260.096 0 1 0 512 601.770667a323.242667 323.242667 0 0 1 322.048 324.266666 20.309333 20.309333 0 1 0 40.618667 0 365.226667 365.226667 0 0 0-253.269334-348.501333zM148.992 925.354667a20.309333 20.309333 0 1 0 40.618667 0 324.266667 324.266667 0 0 1 166.229333-283.306667 67.242667 67.242667 0 0 1 17.066667-7.509333s-34.133333-25.088-36.864-28.501334A365.568 365.568 0 0 0 148.992 925.354667z" fill="#1296db" p-id="1411"></path></svg>