<?xml version="1.0" standalone="no"?><!DOCTYPE svg PUBLIC "-//W3C//DTD SVG 1.1//EN" "http://www.w3.org/Graphics/SVG/1.1/DTD/svg11.dtd"><svg t="1717728249218" class="icon" viewBox="0 0 1024 1024" version="1.1" xmlns="http://www.w3.org/2000/svg" p-id="1272" xmlns:xlink="http://www.w3.org/1999/xlink" width="200" height="200"><path d="M513.678 420.543c-25.11 0-45.464-20.36-45.464-45.478 0-25.117 20.355-45.478 45.464-45.478 25.108 0 45.463 20.361 45.463 45.478s-20.355 45.478-45.463 45.478zM365.56 371.87l34.264-19.543c24.015 47.925 45.32 77.072 63.913 87.44 27.89 15.553 62.63 29.236 99.861 0 24.822-19.49 44.947-48.637 60.375-87.44l37.1 19.543c-8.141 30.587-22.775 59.408-43.903 86.463-31.692 40.582-34.62 39.4-40.357 49.298-5.738 9.898-8.552 40.291 0 60.59 5.701 13.531 29.045 80.815 70.03 201.85H593.02c-37.807-87.134-60.542-133.982-68.206-140.544-11.497-9.843-18.137-9.921-23.93 0-5.792 9.922-58.861 107.15-65.026 140.544h-57.093l70.26-208.872c9.96-24.072 8.677-43.625-3.852-58.659-18.794-22.55-37.788-43.858-45.348-58.522-3.252-6.306-12.496-17.194-21.06-35.384-3.14-6.67-7.541-18.924-13.204-36.764z" fill="#9B97AD" p-id="1273"></path><path d="M706.252 272.74c-5.54 0-11.081 5.484-11.081 12.797v56.676c0 7.314 5.54 12.798 11.081 12.798 5.541 0 11.082-5.484 11.082-12.798v-56.676c0-5.485-5.54-12.798-11.082-12.798z m23.016 31.88v32.909c0 5.484 3.694 9.14 7.388 9.14s7.388-3.656 7.388-9.14v-32.91c0-5.484-3.694-9.14-7.388-9.14s-7.388 3.656-7.388 9.14zM671.587 250c-7.388 0-14.776 7.313-14.776 16.454v31.081H361.015v-31.08c0-9.142-7.388-16.455-14.776-16.455-9.235 0-14.776 7.313-14.776 16.454v80.444c0 9.142 7.388 16.455 14.776 16.455s14.776-7.313 14.776-16.455v-31.08h297.643v31.08c0 9.142 7.388 16.455 14.776 16.455 7.387 0 14.775-7.313 14.775-16.455v-80.444c-1.847-9.14-7.388-16.454-16.622-16.454z m-378.2 34.109c-3.693 0-7.387 3.656-7.387 9.141v32.909c0 5.485 3.694 9.141 7.388 9.141s7.388-3.656 7.388-9.141V293.25c0-5.485-3.694-9.141-7.388-9.141z m26.426-22.74c-5.54 0-11.081 5.485-11.081 12.798v56.677c0 7.313 5.54 12.798 11.081 12.798 5.541 0 11.082-7.313 11.082-12.798v-56.677c0-7.313-5.54-12.797-11.082-12.797z" fill="#9B97AD" p-id="1274"></path></svg>