<svg xmlns="http://www.w3.org/2000/svg" xmlns:xlink="http://www.w3.org/1999/xlink" width="16" height="15.53399658203125" viewBox="0 0 16 15.53399658203125" fill="none">
<path d="M5.87764 1.8118L5.87764 0.250007C5.87764 0.245916 5.87773 0.241827 5.87794 0.23774C5.87814 0.233654 5.87844 0.229575 5.87885 0.225503C5.87924 0.221431 5.87974 0.217371 5.88035 0.213324C5.88094 0.209276 5.88163 0.205247 5.88245 0.201234C5.88324 0.197221 5.88413 0.193229 5.88513 0.18926C5.88613 0.185291 5.88722 0.181349 5.8884 0.177433C5.88958 0.173519 5.89087 0.169635 5.89226 0.165782C5.89362 0.16193 5.89509 0.158114 5.89666 0.154334C5.89824 0.150554 5.89989 0.146814 5.90164 0.143116C5.90338 0.139417 5.90522 0.135764 5.90715 0.132155C5.90909 0.128547 5.9111 0.124988 5.91321 0.121478C5.9153 0.117969 5.91749 0.114513 5.91978 0.111111C5.92205 0.107709 5.92439 0.104365 5.92683 0.101079C5.92927 0.0977921 5.93178 0.0945676 5.93439 0.0914048C5.93697 0.0882419 5.93965 0.0851447 5.94241 0.082113C5.94515 0.0790813 5.94796 0.076119 5.95087 0.0732258C5.95375 0.0703326 5.95671 0.0675121 5.95975 0.0647644C5.96278 0.0620167 5.96587 0.059345 5.96905 0.0567494C5.9722 0.0541537 5.97542 0.0516372 5.97872 0.0491999C5.98199 0.0467625 5.98534 0.0444072 5.98874 0.0421342C5.99215 0.0398609 5.9956 0.0376727 5.99911 0.0355692C6.00262 0.0334657 6.00618 0.0314496 6.0098 0.0295208C6.0134 0.0275921 6.01705 0.025753 6.02076 0.0240036C6.02445 0.0222542 6.02819 0.0205967 6.03197 0.0190311C6.03574 0.0174653 6.03956 0.015993 6.04342 0.0146147C6.04726 0.0132363 6.05115 0.0119532 6.05507 0.0107655C6.05898 0.00957776 6.06293 0.00848683 6.0669 0.00749266C6.07086 0.00649848 6.07484 0.00560229 6.07887 0.00480407C6.08288 0.00400584 6.08691 0.00330655 6.09096 0.00270619C6.09501 0.00210584 6.09906 0.00160515 6.10313 0.00120409C6.10721 0.00080305 6.11129 0.000502147 6.11538 0.000301384C6.11947 0.00010062 6.12355 2.38426e-07 6.12764 2.38426e-07C6.13173 2.38426e-07 6.13583 0.00010062 6.13992 0.000301384C6.144 0.000502147 6.14808 0.00080305 6.15215 0.00120409C6.15622 0.00160515 6.16028 0.00210584 6.16433 0.00270619C6.16838 0.00330655 6.1724 0.00400584 6.17641 0.00480407C6.18042 0.00560229 6.18442 0.00649848 6.18839 0.00749266C6.19235 0.00848683 6.1963 0.00957776 6.20022 0.0107655C6.20413 0.0119532 6.20802 0.0132363 6.21186 0.0146147C6.21571 0.015993 6.21954 0.0174653 6.22332 0.0190311C6.22709 0.0205967 6.23083 0.0222542 6.23454 0.0240036C6.23823 0.025753 6.24188 0.0275921 6.2455 0.0295208C6.2491 0.0314496 6.25266 0.0334657 6.25617 0.0355692C6.25968 0.0376727 6.26313 0.0398609 6.26654 0.0421342C6.26993 0.0444072 6.27328 0.0467625 6.27658 0.0491999C6.27986 0.0516372 6.28309 0.0541537 6.28625 0.0567494C6.2894 0.059345 6.2925 0.0620167 6.29554 0.0647644C6.29857 0.0675121 6.30152 0.0703326 6.30443 0.0732258C6.30732 0.076119 6.31014 0.0790813 6.31289 0.082113C6.31563 0.0851447 6.31829 0.0882419 6.3209 0.0914048C6.3235 0.0945676 6.32601 0.0977921 6.32845 0.101079C6.33089 0.104365 6.33325 0.107709 6.33552 0.111111C6.33779 0.114513 6.33997 0.117969 6.34209 0.121478C6.34418 0.124988 6.34619 0.128547 6.34813 0.132155C6.35005 0.135764 6.3519 0.139417 6.35365 0.143116C6.3554 0.146814 6.35705 0.150554 6.35862 0.154334C6.36018 0.158114 6.36165 0.16193 6.36304 0.165782C6.36442 0.169635 6.3657 0.173519 6.36688 0.177433C6.36807 0.181349 6.36916 0.185291 6.37015 0.18926C6.37115 0.193229 6.37205 0.197221 6.37285 0.201234C6.37364 0.205247 6.37435 0.209276 6.37495 0.213324C6.37554 0.217371 6.37604 0.221431 6.37645 0.225503C6.37684 0.229575 6.37715 0.233654 6.37736 0.23774C6.37754 0.241827 6.37765 0.245916 6.37765 0.250007L6.37765 1.95706C6.37765 1.96255 6.37748 1.96803 6.37713 1.97353C6.37677 1.979 6.37624 1.98447 6.37553 1.9899C6.3748 1.99535 6.37391 2.00077 6.37283 2.00616C6.37176 2.01153 6.37052 2.01688 6.36909 2.02219C6.36767 2.0275 6.36607 2.03276 6.3643 2.03795C6.36252 2.04314 6.36059 2.04827 6.35848 2.05334C6.35636 2.05841 6.35409 2.06342 6.35166 2.06834C6.34922 2.07326 6.34662 2.07809 6.34386 2.08285C6.34111 2.0876 6.3382 2.09225 6.33514 2.0968C6.33207 2.10136 6.32886 2.10582 6.3255 2.11017C6.32214 2.11451 6.31864 2.11874 6.31501 2.12285C6.31138 2.12697 6.30761 2.13097 6.30372 2.13483C6.29981 2.1387 6.29579 2.14244 6.29164 2.14604C6.28749 2.14965 6.28324 2.15311 6.27886 2.15643C6.27449 2.15974 6.27001 2.16292 6.26544 2.16595C6.26085 2.16898 6.25617 2.17185 6.2514 2.17456L4.67285 3.07259C4.66347 3.07793 4.65379 3.08264 4.64383 3.08673C4.63384 3.0908 4.62364 3.09422 4.61323 3.09699C4.6028 3.09976 4.59225 3.10184 4.58156 3.10323C4.57086 3.10464 4.56013 3.10533 4.54935 3.10535C3.20181 3.10535 2.26353 3.40785 1.72077 3.99537C1.17874 4.58265 0.954981 5.56117 1.06923 6.94271C1.07082 6.96247 1.07007 6.98215 1.06698 7.00172L0.496968 10.6696C0.496277 10.6736 0.495492 10.6775 0.494609 10.6815C0.493727 10.6854 0.492749 10.6894 0.491676 10.6933C0.490604 10.6972 0.489437 10.701 0.488174 10.7049C0.486913 10.7087 0.48556 10.7125 0.484113 10.7163C0.482666 10.7201 0.48113 10.7238 0.479501 10.7275C0.477874 10.7312 0.476157 10.7349 0.47435 10.7385C0.472545 10.7421 0.470652 10.7457 0.468672 10.7493C0.466692 10.7528 0.464629 10.7563 0.462479 10.7597C0.460331 10.7631 0.4581 10.7665 0.455787 10.7698C0.453475 10.7731 0.451084 10.7764 0.448612 10.7796C0.446141 10.7828 0.443595 10.786 0.440971 10.789C0.438347 10.7921 0.43565 10.7951 0.43288 10.7981C0.43011 10.801 0.42727 10.8039 0.424361 10.8067C0.421451 10.8096 0.418474 10.8123 0.415431 10.815C0.412389 10.8176 0.409282 10.8202 0.406113 10.8227C0.402945 10.8252 0.399716 10.8277 0.396428 10.83C0.393142 10.8324 0.389799 10.8347 0.386401 10.8369C0.383004 10.8391 0.379555 10.8412 0.376053 10.8432C0.372554 10.8453 0.369005 10.8472 0.365409 10.8491C0.361815 10.8509 0.358176 10.8527 0.354495 10.8544C0.350814 10.8561 0.347094 10.8576 0.343336 10.8591C0.339579 10.8606 0.335785 10.862 0.331959 10.8634C0.328132 10.8647 0.324277 10.8659 0.320389 10.867C0.316504 10.8682 0.312592 10.8692 0.308655 10.8701C0.304719 10.8711 0.300762 10.8719 0.296784 10.8727C0.292808 10.8734 0.288815 10.8741 0.284805 10.8746C0.280797 10.8752 0.276778 10.8756 0.272745 10.876C0.268716 10.8764 0.264678 10.8766 0.260634 10.8768C0.256591 10.8769 0.252546 10.877 0.248498 10.877C0.244452 10.8769 0.240409 10.8768 0.236367 10.8766C0.232327 10.8763 0.228295 10.876 0.224271 10.8756C0.220248 10.8752 0.216235 10.8746 0.212236 10.874C0.208236 10.8734 0.204255 10.8727 0.200291 10.8719C0.196328 10.871 0.192386 10.8701 0.188466 10.8691C0.184545 10.8681 0.180652 10.867 0.176786 10.8658C0.17292 10.8646 0.169086 10.8633 0.16528 10.862C0.161478 10.8606 0.157709 10.8591 0.153976 10.8575C0.150244 10.856 0.146552 10.8543 0.1429 10.8526C0.139248 10.8508 0.135641 10.849 0.132078 10.8471C0.128515 10.8452 0.125 10.8432 0.121535 10.8411C0.118069 10.839 0.114656 10.8368 0.111296 10.8346C0.107935 10.8323 0.104632 10.83 0.101385 10.8275C0.0981381 10.8251 0.0949518 10.8226 0.0918259 10.8201C0.0887003 10.8175 0.0856386 10.8148 0.0826413 10.8121C0.079644 10.8094 0.0767143 10.8066 0.0738525 10.8038C0.0709907 10.8009 0.0682 10.798 0.0654803 10.795C0.0627606 10.792 0.0601154 10.7889 0.0575445 10.7858C0.0549734 10.7827 0.0524799 10.7795 0.0500635 10.7762C0.0476473 10.773 0.0453114 10.7697 0.0430555 10.7663C0.0407996 10.763 0.0386265 10.7596 0.0365365 10.7561C0.0344463 10.7526 0.0324416 10.7491 0.030522 10.7456C0.0286025 10.742 0.0267706 10.7384 0.0250263 10.7347C0.0232821 10.7311 0.0216273 10.7274 0.0200622 10.7236C0.0184972 10.7199 0.0170236 10.7161 0.0156416 10.7123C0.0142595 10.7085 0.0129706 10.7047 0.0117747 10.7008C0.0105789 10.697 0.00947755 10.6931 0.00847074 10.6892C0.00746395 10.6852 0.00655286 10.6813 0.00573748 10.6773C0.0049221 10.6734 0.00420339 10.6694 0.00358136 10.6654C0.00295932 10.6614 0.00243468 10.6574 0.00200745 10.6534C0.00158022 10.6493 0.00125089 10.6453 0.00101947 10.6413C0.000788045 10.6372 0.000654803 10.6332 0.00061974 10.6291C0.000584676 10.6251 0.000647832 10.621 0.000809209 10.617C0.000970586 10.613 0.00122999 10.6089 0.00158743 10.6049C0.00194487 10.6009 0.00239991 10.5968 0.00295257 10.5928L0.56847 6.95396C0.449466 5.46142 0.704974 4.35863 1.35349 3.65636C1.99577 2.96059 3.04305 2.61583 4.48285 2.60558L5.87789 1.8118L5.87764 1.8118ZM10.0013 1.8118L10.0013 0.250007C10.0013 0.245916 10.0012 0.241827 10.001 0.23774C10.0007 0.233654 10.0005 0.229575 10.0001 0.225503C9.99966 0.221431 9.99916 0.217371 9.99855 0.213324C9.99795 0.209276 9.99725 0.205247 9.99646 0.201234C9.99566 0.197221 9.99477 0.193229 9.99377 0.18926C9.99277 0.185291 9.99168 0.181349 9.9905 0.177433C9.9893 0.173519 9.98802 0.169635 9.98665 0.165782C9.98526 0.16193 9.98379 0.158114 9.98223 0.154334C9.98066 0.150554 9.97901 0.146814 9.97725 0.143116C9.9755 0.139417 9.97367 0.135763 9.97174 0.132155C9.96981 0.128547 9.96779 0.124988 9.96569 0.121478C9.96358 0.117969 9.9614 0.114513 9.95913 0.111111C9.95685 0.107709 9.95449 0.104365 9.95207 0.101078C9.94961 0.0977919 9.9471 0.0945674 9.94451 0.0914047C9.94191 0.0882417 9.93924 0.0851445 9.9365 0.0821128C9.93375 0.0790812 9.93092 0.0761188 9.92804 0.0732257C9.92514 0.0703323 9.92218 0.067512 9.91916 0.0647643C9.91611 0.0620166 9.91301 0.0593449 9.90986 0.0567493C9.90668 0.0541536 9.90346 0.051637 9.90019 0.0491998C9.89689 0.0467624 9.89355 0.044407 9.89015 0.042134C9.88675 0.0398607 9.8833 0.0376725 9.87979 0.035569C9.87627 0.0334656 9.87272 0.0314495 9.86911 0.0295207C9.8655 0.0275919 9.86185 0.0257527 9.85815 0.0240035C9.85445 0.0222541 9.85071 0.0205966 9.84692 0.0190308C9.84314 0.017465 9.83932 0.0159929 9.83548 0.0146144C9.83162 0.013236 9.82773 0.011953 9.82382 0.0107653C9.8199 0.00957754 9.81597 0.00848658 9.812 0.00749242C9.80803 0.00649824 9.80404 0.00560204 9.80003 0.00480383C9.796 0.0040056 9.79198 0.00330631 9.78793 0.00270597C9.78388 0.0021056 9.77982 0.0016049 9.77576 0.00120386C9.77168 0.000802813 9.7676 0.00050191 9.76352 0.000301147C9.75943 0.000100382 9.75534 0 9.75126 0C9.74717 0 9.74308 0.000100382 9.73899 0.000301147C9.73491 0.00050191 9.73082 0.000802813 9.72675 0.00120386C9.72268 0.0016049 9.71862 0.0021056 9.71458 0.00270597C9.71052 0.00330631 9.7065 0.0040056 9.70248 0.00480383C9.69846 0.00560204 9.69448 0.00649824 9.69051 0.00749242C9.68654 0.00848658 9.68259 0.00957754 9.67869 0.0107653C9.67477 0.011953 9.67088 0.013236 9.66703 0.0146144C9.66317 0.0159929 9.65936 0.017465 9.65559 0.0190308C9.6518 0.0205966 9.64805 0.0222541 9.64436 0.0240035C9.64066 0.0257527 9.637 0.0275919 9.6334 0.0295207C9.6298 0.0314495 9.62624 0.0334656 9.62273 0.035569C9.61921 0.0376725 9.61575 0.0398607 9.61236 0.042134C9.60895 0.044407 9.60561 0.0467624 9.60232 0.0491998C9.59904 0.051637 9.59581 0.0541536 9.59265 0.0567493C9.58948 0.0593449 9.5864 0.0620166 9.58337 0.0647643C9.58033 0.067512 9.57736 0.0703325 9.57447 0.0732257C9.57158 0.0761188 9.56876 0.0790812 9.56601 0.0821128C9.56325 0.0851445 9.56059 0.0882417 9.558 0.0914047C9.5554 0.0945674 9.55288 0.0977919 9.55045 0.101078C9.54801 0.104365 9.54565 0.107709 9.54338 0.111111C9.54111 0.114513 9.53891 0.117969 9.53682 0.121478C9.5347 0.124988 9.53269 0.128547 9.53077 0.132155C9.52883 0.135763 9.527 0.139417 9.52526 0.143116C9.5235 0.146814 9.52184 0.150554 9.52028 0.154334C9.5187 0.158114 9.51723 0.16193 9.51586 0.165782C9.51448 0.169635 9.51319 0.173519 9.51201 0.177433C9.51082 0.181349 9.50973 0.185291 9.50874 0.18926C9.50774 0.193229 9.50684 0.197221 9.50605 0.201234C9.50525 0.205247 9.50455 0.209276 9.50396 0.213324C9.50335 0.217371 9.50285 0.221431 9.50246 0.225503C9.50205 0.229575 9.50175 0.233654 9.50155 0.23774C9.50134 0.241827 9.50125 0.245916 9.50125 0.250007L9.50125 1.95706C9.50125 1.96255 9.50142 1.96805 9.50178 1.97353C9.50214 1.97902 9.50267 1.98448 9.5034 1.98992C9.50411 1.99537 9.505 2.00079 9.50609 2.00618C9.50717 2.01156 9.50842 2.01691 9.50985 2.02222C9.51127 2.02753 9.51288 2.03279 9.51466 2.03798C9.51643 2.04317 9.51838 2.04832 9.5205 2.05339C9.52261 2.05846 9.52488 2.06346 9.52733 2.06837C9.52977 2.07329 9.53237 2.07814 9.53514 2.08289C9.5379 2.08763 9.54082 2.09229 9.54389 2.09685C9.54695 2.1014 9.55017 2.10585 9.55355 2.1102C9.55691 2.11454 9.56041 2.11878 9.56405 2.1229C9.56769 2.12702 9.57147 2.13101 9.57538 2.13487C9.57928 2.13873 9.58331 2.14247 9.58746 2.14607C9.5916 2.14966 9.59586 2.15313 9.60025 2.15644C9.60462 2.15976 9.6091 2.16294 9.6137 2.16596C9.61829 2.16898 9.62297 2.17185 9.62775 2.17456L11.2063 3.07259C11.2157 3.07793 11.2253 3.08264 11.2353 3.08673C11.2453 3.0908 11.2555 3.09422 11.2659 3.09699C11.2763 3.09976 11.2869 3.10184 11.2976 3.10323C11.3083 3.10464 11.319 3.10533 11.3298 3.10535C12.6773 3.10535 13.6156 3.40785 14.1584 3.99537C14.7004 4.58239 14.9242 5.56117 14.8102 6.94271C14.8085 6.96247 14.8091 6.98213 14.8122 7.00172L15.3823 10.6696C15.3827 10.6737 15.3833 10.6778 15.3842 10.6818C15.385 10.6859 15.3859 10.6899 15.3868 10.6939C15.3877 10.698 15.3888 10.702 15.39 10.7059C15.3912 10.7099 15.3924 10.7138 15.3938 10.7177C15.3951 10.7217 15.3966 10.7255 15.3982 10.7293C15.3997 10.7332 15.4013 10.737 15.4031 10.7407C15.4048 10.7445 15.4066 10.7482 15.4086 10.7518C15.4104 10.7555 15.4125 10.7591 15.4146 10.7627C15.4168 10.7662 15.4189 10.7697 15.4213 10.7732C15.4234 10.7766 15.4259 10.78 15.4284 10.7834C15.4308 10.7867 15.4333 10.79 15.436 10.7932C15.4386 10.7964 15.4413 10.7995 15.444 10.8026C15.4467 10.8057 15.4495 10.8087 15.4525 10.8116C15.4554 10.8145 15.4584 10.8174 15.4614 10.8202C15.4645 10.823 15.4676 10.8257 15.4708 10.8283C15.474 10.831 15.4773 10.8335 15.4806 10.836C15.484 10.8384 15.4873 10.8408 15.4908 10.8431C15.4941 10.8454 15.4976 10.8477 15.5012 10.8498C15.5047 10.8519 15.5083 10.8539 15.512 10.8559C15.5156 10.8579 15.5192 10.8597 15.523 10.8615C15.5268 10.8632 15.5306 10.8649 15.5344 10.8665C15.5382 10.8681 15.5421 10.8696 15.546 10.8709C15.5498 10.8723 15.5538 10.8736 15.5578 10.8748C15.5618 10.876 15.5657 10.8771 15.5698 10.8781C15.5737 10.8791 15.5778 10.88 15.5819 10.8808C15.5859 10.8816 15.5899 10.8823 15.5942 10.8829C15.5981 10.8835 15.6022 10.8839 15.6064 10.8843C15.6105 10.8847 15.6146 10.885 15.6189 10.8852C15.6229 10.8854 15.627 10.8854 15.6313 10.8854C15.6354 10.8854 15.6394 10.8853 15.6437 10.8851C15.6476 10.8848 15.6517 10.8845 15.6559 10.8841C15.66 10.8836 15.6641 10.8831 15.6682 10.8825C15.6723 10.8818 15.6764 10.8811 15.6805 10.8803C15.6844 10.8794 15.6885 10.8785 15.6926 10.8774C15.6965 10.8764 15.7006 10.8753 15.7045 10.874C15.7085 10.8728 15.7122 10.8715 15.7162 10.87C15.7201 10.8686 15.7239 10.8671 15.7277 10.8655C15.7315 10.8638 15.7353 10.8621 15.739 10.8603C15.7427 10.8585 15.7465 10.8566 15.7501 10.8546C15.7537 10.8527 15.7572 10.8506 15.7608 10.8484C15.7643 10.8462 15.7678 10.844 15.7711 10.8417C15.7745 10.8393 15.7779 10.8369 15.7813 10.8344C15.7846 10.8319 15.7878 10.8293 15.791 10.8266C15.794 10.824 15.7972 10.8212 15.8002 10.8184C15.8032 10.8156 15.8061 10.8127 15.8091 10.8097C15.8118 10.8068 15.8147 10.8037 15.8175 10.8006C15.8202 10.7975 15.8229 10.7944 15.8255 10.7911C15.828 10.7879 15.8306 10.7846 15.833 10.7812C15.8353 10.7779 15.8376 10.7745 15.84 10.771C15.8421 10.7675 15.8442 10.764 15.8464 10.7604C15.8485 10.7568 15.8504 10.7532 15.8524 10.7495C15.8542 10.7458 15.8559 10.7421 15.8577 10.7383C15.8594 10.7346 15.861 10.7307 15.8626 10.7269C15.8641 10.7231 15.8654 10.7192 15.8668 10.7152C15.868 10.7113 15.8692 10.7074 15.8704 10.7034C15.8715 10.6994 15.8726 10.6954 15.8736 10.6914C15.8745 10.6873 15.8753 10.6833 15.876 10.6792C15.8766 10.6751 15.8772 10.6711 15.8778 10.667C15.8785 10.6629 15.8789 10.6588 15.8792 10.6546C15.8795 10.6505 15.8797 10.6464 15.8798 10.6422C15.8798 10.6381 15.8798 10.634 15.8798 10.6298C15.8797 10.6257 15.8795 10.6216 15.8792 10.6174C15.8789 10.6133 15.8785 10.6092 15.878 10.6051C15.8774 10.601 15.8768 10.5969 15.8762 10.5928L15.3107 6.95396C15.4298 5.46142 15.1743 4.35863 14.5257 3.65636C13.8834 2.96059 12.8361 2.61583 11.3966 2.60558L10.0015 1.8118L10.0013 1.8118ZM2.41304 13.6147C2.4116 13.6184 2.41009 13.6221 2.40848 13.6258C2.40688 13.6295 2.40518 13.6331 2.40341 13.6367C2.40162 13.6403 2.39976 13.6438 2.39783 13.6473C2.39586 13.6508 2.39383 13.6543 2.39172 13.6577C2.38961 13.6611 2.38741 13.6645 2.38514 13.6677C2.38285 13.671 2.38049 13.6743 2.37807 13.6775C2.37563 13.6807 2.37312 13.6838 2.37055 13.6868C2.36796 13.6899 2.36531 13.6929 2.36259 13.6958C2.35985 13.6988 2.35705 13.7017 2.35418 13.7045C2.35131 13.7073 2.34839 13.71 2.34539 13.7127C2.34239 13.7153 2.33933 13.7179 2.33622 13.7204C2.3331 13.7229 2.32992 13.7254 2.32668 13.7277C2.32344 13.7301 2.32014 13.7324 2.3168 13.7346C2.31344 13.7368 2.31004 13.7389 2.30659 13.7409C2.30314 13.743 2.29965 13.7449 2.2961 13.7468C2.29256 13.7487 2.28897 13.7505 2.28534 13.7522C2.28171 13.7539 2.27803 13.7555 2.27434 13.757C2.27063 13.7585 2.26689 13.76 2.2631 13.7613C2.25932 13.7626 2.25552 13.7639 2.25169 13.765C2.24785 13.7662 2.24399 13.7673 2.2401 13.7682C2.23621 13.7692 2.2323 13.7701 2.22838 13.7709C2.22444 13.7717 2.22049 13.7724 2.21653 13.773C2.21256 13.7735 2.2086 13.774 2.2046 13.7745C2.2006 13.7749 2.19662 13.7752 2.19263 13.7754C2.18861 13.7756 2.1846 13.7757 2.18061 13.7757C2.1766 13.7757 2.17258 13.7757 2.16859 13.7755C2.16458 13.7753 2.16058 13.7751 2.1566 13.7747C2.1526 13.7743 2.14862 13.7739 2.14466 13.7733C2.14067 13.7727 2.13672 13.7721 2.13279 13.7714C2.12885 13.7706 2.12493 13.7698 2.12104 13.7688C2.11714 13.7679 2.11326 13.7669 2.10942 13.7657C2.10557 13.7646 2.10174 13.7634 2.09796 13.7621C2.09417 13.7608 2.09042 13.7594 2.0867 13.7579C2.08297 13.7564 2.07928 13.7549 2.07565 13.7532C2.07198 13.7515 2.06838 13.7498 2.06482 13.7479C2.06125 13.7461 2.05774 13.7442 2.05427 13.7422C2.05079 13.7402 2.04738 13.7381 2.04402 13.7359C2.04065 13.7338 2.03733 13.7315 2.03406 13.7292C2.03079 13.7268 2.0276 13.7244 2.02445 13.7219C2.0213 13.7195 2.01823 13.7169 2.0152 13.7143C2.01218 13.7116 2.00922 13.7089 2.00633 13.7062C2.00343 13.7034 2.00061 13.7005 1.99786 13.6976C1.9951 13.6947 1.99241 13.6917 1.9898 13.6887C1.98718 13.6857 1.98464 13.6826 1.98219 13.6794C1.97972 13.6762 1.97733 13.673 1.97503 13.6698C1.97271 13.6665 1.97049 13.6631 1.96834 13.6598C1.96619 13.6564 1.96411 13.653 1.96215 13.6495C1.96015 13.646 1.95826 13.6425 1.95644 13.6389C1.95462 13.6353 1.9529 13.6317 1.95126 13.628C1.94963 13.6244 1.94807 13.6207 1.94662 13.617C1.94515 13.6132 1.94377 13.6094 1.9425 13.6056C1.94121 13.6018 1.94002 13.598 1.93893 13.5942C1.93782 13.5903 1.93682 13.5864 1.93591 13.5825C1.93501 13.5786 1.93419 13.5747 1.93346 13.5708C1.93274 13.5668 1.93211 13.5629 1.93158 13.5589C1.93104 13.5549 1.93062 13.5509 1.93028 13.5469C1.92993 13.5429 1.92969 13.539 1.92954 13.5349C1.92939 13.5309 1.92934 13.5269 1.92939 13.5229C1.92942 13.5189 1.92957 13.5149 1.92981 13.5109C1.93004 13.5069 1.93037 13.5029 1.93081 13.4989C1.93124 13.4949 1.93177 13.491 1.93239 13.487C1.93301 13.4831 1.93372 13.4791 1.93454 13.4752C1.93534 13.4713 1.93625 13.4674 1.93725 13.4635C1.93825 13.4596 1.93933 13.4557 1.94052 13.4519L3.45257 9.06003C3.53157 8.83002 3.85908 8.83703 3.92857 9.07003L4.79961 11.9949C4.80656 12.0181 4.81006 12.0419 4.8101 12.0661L4.8101 15.1187C4.8101 15.1228 4.81 15.1269 4.8098 15.131C4.8096 15.1351 4.8093 15.1391 4.80891 15.1432C4.8085 15.1473 4.808 15.1513 4.80741 15.1553C4.8068 15.1594 4.80609 15.1634 4.8053 15.1675C4.8045 15.1715 4.80361 15.1755 4.80261 15.1794C4.80161 15.1835 4.80052 15.1874 4.79934 15.1912C4.79814 15.1952 4.79686 15.1991 4.79549 15.2029C4.7941 15.2068 4.79263 15.2106 4.79107 15.2144C4.7895 15.2182 4.78785 15.2218 4.78611 15.2256C4.78435 15.2294 4.78251 15.233 4.78058 15.2366C4.77865 15.2401 4.77663 15.2437 4.77454 15.2472C4.77242 15.2507 4.77025 15.2542 4.76797 15.2577C4.7657 15.261 4.76334 15.2643 4.76091 15.2677C4.75847 15.2708 4.75596 15.2742 4.75335 15.2774C4.75075 15.2805 4.74808 15.2836 4.74534 15.2866C4.74259 15.2896 4.73977 15.2926 4.73688 15.2955C4.73398 15.2984 4.73102 15.3013 4.728 15.304C4.72495 15.3067 4.72185 15.3094 4.7187 15.312C4.71552 15.3146 4.7123 15.317 4.70903 15.3196C4.70573 15.322 4.70238 15.3243 4.69899 15.3265C4.69559 15.3288 4.69214 15.3311 4.68863 15.3332C4.68511 15.3352 4.68156 15.3373 4.67795 15.3393C4.67434 15.3412 4.67069 15.343 4.66699 15.3447C4.66329 15.3464 4.65955 15.348 4.65578 15.3497C4.65199 15.3512 4.64816 15.3527 4.64432 15.3541C4.64047 15.3555 4.63658 15.3568 4.63268 15.3579C4.62876 15.3591 4.62481 15.3602 4.62084 15.3612C4.61688 15.3623 4.61288 15.3632 4.60887 15.3639C4.60486 15.3647 4.60083 15.3654 4.59679 15.3661C4.59273 15.3667 4.58867 15.3671 4.5846 15.3676C4.58053 15.368 4.57646 15.3683 4.57237 15.3685C4.56828 15.3686 4.56418 15.3688 4.5601 15.3688C4.55601 15.3688 4.55192 15.3686 4.54783 15.3685C4.54375 15.3683 4.53966 15.368 4.53559 15.3676C4.53152 15.3671 4.52746 15.3667 4.52342 15.3661C4.51936 15.3654 4.51534 15.3647 4.51132 15.3639C4.5073 15.3632 4.50332 15.3623 4.49935 15.3612C4.49538 15.3602 4.49143 15.3591 4.48753 15.3579C4.48361 15.3568 4.47972 15.3555 4.47587 15.3541C4.47201 15.3527 4.4682 15.3512 4.46443 15.3497C4.46064 15.348 4.45691 15.3464 4.45321 15.3447C4.4495 15.343 4.44586 15.3412 4.44225 15.3393C4.43863 15.3373 4.43508 15.3352 4.43157 15.3332C4.42805 15.3311 4.42459 15.3288 4.4212 15.3265C4.41779 15.3243 4.41445 15.322 4.41116 15.3196C4.40788 15.317 4.40465 15.3146 4.40149 15.312C4.39832 15.3094 4.39524 15.3067 4.39221 15.304C4.38917 15.3013 4.3862 15.2984 4.38332 15.2955C4.38042 15.2926 4.3776 15.2896 4.37486 15.2866C4.37211 15.2836 4.36943 15.2805 4.36684 15.2774C4.36424 15.2742 4.36172 15.2708 4.35929 15.2677C4.35685 15.2643 4.35449 15.261 4.35222 15.2577C4.34995 15.2542 4.34775 15.2507 4.34566 15.2472C4.34354 15.2437 4.34153 15.2401 4.33961 15.2366C4.33767 15.233 4.33584 15.2294 4.3341 15.2256C4.33234 15.2218 4.33068 15.2182 4.32912 15.2144C4.32754 15.2106 4.32608 15.2068 4.3247 15.2029C4.32332 15.1991 4.32203 15.1952 4.32085 15.1912C4.31967 15.1874 4.31858 15.1835 4.31758 15.1794C4.31658 15.1755 4.31569 15.1715 4.31489 15.1675C4.31409 15.1634 4.31339 15.1594 4.3128 15.1553C4.31219 15.1513 4.31169 15.1473 4.3113 15.1432C4.31089 15.1391 4.31059 15.1351 4.31039 15.131C4.31018 15.1269 4.31009 15.1228 4.31009 15.1187L4.31009 12.1029L3.67157 9.95955L2.41304 13.6149L2.41304 13.6147ZM12.0663 9.95931L13.3249 13.6147C13.3262 13.6186 13.3276 13.6224 13.3291 13.6263C13.3306 13.6301 13.3322 13.6339 13.3338 13.6376C13.3355 13.6414 13.3373 13.6451 13.3392 13.6488C13.341 13.6525 13.343 13.6561 13.345 13.6596C13.3471 13.6632 13.3492 13.6667 13.3514 13.6702C13.3536 13.6737 13.3559 13.6771 13.3583 13.6804C13.3607 13.6838 13.3632 13.6871 13.3657 13.6903C13.3683 13.6935 13.3709 13.6967 13.3736 13.6998C13.3763 13.7029 13.3791 13.7059 13.382 13.7089C13.3848 13.7118 13.3878 13.7147 13.3907 13.7175C13.3937 13.7204 13.3968 13.7231 13.3999 13.7258C13.4031 13.7284 13.4063 13.731 13.4095 13.7335C13.4128 13.736 13.4161 13.7385 13.4195 13.7408C13.4229 13.7432 13.4263 13.7454 13.4298 13.7476C13.4333 13.7498 13.4368 13.7518 13.4404 13.7538C13.444 13.7559 13.4477 13.7578 13.4514 13.7596C13.4551 13.7614 13.4588 13.7631 13.4626 13.7648C13.4663 13.7664 13.4701 13.7679 13.474 13.7694C13.4778 13.7708 13.4817 13.7722 13.4857 13.7734C13.4896 13.7747 13.4935 13.7758 13.4975 13.7769C13.5015 13.778 13.5055 13.7789 13.5095 13.7798C13.5135 13.7807 13.5176 13.7814 13.5216 13.7821C13.5257 13.7828 13.5298 13.7833 13.5338 13.7838C13.5379 13.7842 13.542 13.7846 13.5461 13.7849C13.5502 13.7851 13.5544 13.7853 13.5585 13.7853C13.5626 13.7854 13.5667 13.7854 13.5708 13.7852C13.5749 13.7851 13.579 13.7848 13.5831 13.7845C13.5872 13.7841 13.5913 13.7837 13.5954 13.7831C13.5995 13.7826 13.6035 13.7819 13.6076 13.7812C13.6116 13.7804 13.6156 13.7796 13.6196 13.7786C13.6236 13.7777 13.6276 13.7766 13.6316 13.7755C13.6355 13.7743 13.6394 13.7731 13.6433 13.7717C13.6472 13.7704 13.6511 13.769 13.6549 13.7674C13.6587 13.7659 13.6625 13.7643 13.6662 13.7626C13.67 13.7609 13.6737 13.759 13.6773 13.7572C13.681 13.7553 13.6846 13.7533 13.6881 13.7512C13.6917 13.7491 13.6952 13.747 13.6986 13.7447C13.7021 13.7425 13.7055 13.7401 13.7088 13.7377C13.7121 13.7353 13.7154 13.7328 13.7186 13.7302C13.7218 13.7276 13.7249 13.725 13.728 13.7222C13.7311 13.7195 13.7341 13.7167 13.737 13.7138C13.74 13.7109 13.7428 13.708 13.7456 13.705C13.7484 13.7019 13.7511 13.6989 13.7538 13.6957C13.7564 13.6925 13.759 13.6893 13.7615 13.686C13.7639 13.6828 13.7663 13.6794 13.7686 13.676C13.7709 13.6726 13.7732 13.6692 13.7753 13.6657C13.7775 13.6621 13.7795 13.6586 13.7815 13.655C13.7835 13.6513 13.7853 13.6477 13.7871 13.644C13.7889 13.6403 13.7906 13.6365 13.7922 13.6327C13.7938 13.6289 13.7953 13.6251 13.7967 13.6213C13.7982 13.6174 13.7995 13.6135 13.8007 13.6096C13.8019 13.6056 13.803 13.6017 13.8041 13.5977C13.8051 13.5937 13.806 13.5897 13.8069 13.5857C13.8077 13.5816 13.8084 13.5776 13.809 13.5735C13.8097 13.5695 13.8102 13.5654 13.8106 13.5613C13.811 13.5572 13.8114 13.5531 13.8116 13.549C13.8118 13.5449 13.8119 13.5408 13.812 13.5367C13.812 13.5325 13.8119 13.5284 13.8117 13.5243C13.8115 13.5202 13.8113 13.5161 13.8109 13.512C13.8105 13.5079 13.81 13.5038 13.8094 13.4998C13.8088 13.4957 13.8081 13.4916 13.8074 13.4876C13.8066 13.4836 13.8057 13.4795 13.8047 13.4755C13.8037 13.4715 13.8026 13.4676 13.8015 13.4636C13.8003 13.4597 13.799 13.4558 13.7976 13.4519L12.2856 9.06003C12.2063 8.83002 11.8788 8.83703 11.8096 9.07003L10.9385 11.9949C10.9316 12.0181 10.9281 12.0419 10.9281 12.0661L10.9281 15.1187C10.9281 15.1228 10.9281 15.1269 10.9283 15.131C10.9285 15.1351 10.9288 15.1391 10.9292 15.1432C10.9296 15.1473 10.9301 15.1513 10.9307 15.1553C10.9313 15.1594 10.932 15.1634 10.9328 15.1675C10.9336 15.1715 10.9345 15.1755 10.9355 15.1794C10.9365 15.1835 10.9376 15.1874 10.9388 15.1912C10.94 15.1952 10.9413 15.1991 10.9427 15.2029C10.944 15.2068 10.9455 15.2106 10.9471 15.2144C10.9486 15.2182 10.9503 15.2218 10.952 15.2256C10.9538 15.2294 10.9556 15.233 10.9576 15.2366C10.9595 15.2401 10.9615 15.2437 10.9636 15.2472C10.9657 15.2507 10.9679 15.2542 10.9702 15.2577C10.9724 15.261 10.9748 15.2643 10.9772 15.2677C10.9797 15.2708 10.9822 15.2742 10.9848 15.2774C10.9874 15.2805 10.9901 15.2836 10.9928 15.2866C10.9955 15.2896 10.9984 15.2926 11.0013 15.2955C11.0042 15.2984 11.0071 15.3013 11.0102 15.304C11.0132 15.3067 11.0163 15.3094 11.0194 15.312C11.0226 15.3146 11.0258 15.317 11.0291 15.3196C11.0324 15.322 11.0358 15.3243 11.0392 15.3265C11.0425 15.3288 11.046 15.3311 11.0495 15.3332C11.053 15.3352 11.0566 15.3373 11.0602 15.3393C11.0638 15.3412 11.0675 15.343 11.0712 15.3447C11.0749 15.3464 11.0786 15.348 11.0824 15.3497C11.0862 15.3512 11.09 15.3527 11.0938 15.3541C11.0977 15.3555 11.1016 15.3568 11.1055 15.3579C11.1094 15.3591 11.1133 15.3602 11.1173 15.3612C11.1213 15.3623 11.1253 15.3632 11.1293 15.3639C11.1333 15.3647 11.1373 15.3654 11.1414 15.3661C11.1454 15.3667 11.1495 15.3671 11.1535 15.3676C11.1576 15.368 11.1617 15.3683 11.1658 15.3685C11.1699 15.3686 11.174 15.3688 11.1781 15.3688C11.1821 15.3688 11.1862 15.3686 11.1903 15.3685C11.1944 15.3683 11.1985 15.368 11.2026 15.3676C11.2066 15.3671 11.2107 15.3667 11.2147 15.3661C11.2188 15.3654 11.2228 15.3647 11.2268 15.3639C11.2308 15.3632 11.2348 15.3623 11.2388 15.3612C11.2428 15.3602 11.2467 15.3591 11.2506 15.3579C11.2545 15.3568 11.2584 15.3555 11.2623 15.3541C11.2661 15.3527 11.2699 15.3512 11.2737 15.3497C11.2775 15.348 11.2812 15.3464 11.2849 15.3447C11.2886 15.343 11.2923 15.3412 11.2959 15.3393C11.2995 15.3373 11.3031 15.3352 11.3066 15.3332C11.3101 15.3311 11.3135 15.3288 11.3169 15.3265C11.3203 15.3243 11.3237 15.322 11.327 15.3196C11.3303 15.317 11.3335 15.3146 11.3366 15.312C11.3398 15.3094 11.3429 15.3067 11.3459 15.304C11.349 15.3013 11.3519 15.2984 11.3548 15.2955C11.3577 15.2926 11.3605 15.2896 11.3633 15.2866C11.366 15.2836 11.3687 15.2805 11.3713 15.2774C11.3739 15.2742 11.3764 15.2708 11.3789 15.2677C11.3813 15.2643 11.3836 15.261 11.3859 15.2577C11.3882 15.2542 11.3904 15.2507 11.3925 15.2472C11.3946 15.2437 11.3966 15.2401 11.3985 15.2366C11.4005 15.233 11.4023 15.2294 11.4041 15.2256C11.4058 15.2218 11.4075 15.2182 11.409 15.2144C11.4106 15.2106 11.4121 15.2068 11.4134 15.2029C11.4148 15.1991 11.4161 15.1952 11.4173 15.1912C11.4185 15.1874 11.4196 15.1835 11.4206 15.1794C11.4216 15.1755 11.4224 15.1715 11.4232 15.1675C11.4241 15.1634 11.4247 15.1594 11.4254 15.1553C11.426 15.1513 11.4265 15.1473 11.4269 15.1432C11.4272 15.1391 11.4275 15.1351 11.4278 15.131C11.428 15.1269 11.4281 15.1228 11.4281 15.1187L11.4281 12.1029L12.0663 9.95955L12.0663 9.95931Z"   fill="#FF8D1A" >
</path>
<path d="M10.7031 4.75012C10.2301 4.75012 9.78985 5.20914 9.50058 5.55341C9.21058 5.2089 8.77056 4.75012 8.29729 4.75012C7.44427 4.75012 6.75024 5.4179 6.75024 6.23867C6.75024 6.72845 6.99877 7.07195 7.19876 7.34797C7.77928 8.14974 9.23958 9.14752 9.30133 9.18951C9.30498 9.19198 9.30865 9.19438 9.31238 9.19671C9.3161 9.19906 9.31987 9.20132 9.32369 9.20351C9.3275 9.20571 9.33135 9.20782 9.33524 9.20987C9.33913 9.21191 9.34306 9.21389 9.34703 9.2158C9.35099 9.21769 9.35499 9.21953 9.35902 9.22128C9.36306 9.22304 9.36712 9.22472 9.37122 9.22632C9.37532 9.22791 9.37944 9.22944 9.38358 9.23089C9.38773 9.23233 9.39191 9.23371 9.39612 9.23501C9.40031 9.2363 9.40453 9.23751 9.40879 9.23864C9.41304 9.23978 9.41731 9.24084 9.42159 9.24181C9.42588 9.24279 9.43019 9.24368 9.43451 9.2445C9.43883 9.2453 9.44318 9.24605 9.44752 9.2467C9.45187 9.24735 9.45623 9.24792 9.4606 9.24842C9.46498 9.24891 9.46935 9.24932 9.47373 9.24965C9.47812 9.24997 9.48251 9.25021 9.48689 9.25038C9.4913 9.25054 9.49569 9.25063 9.50008 9.25063C9.50448 9.25063 9.50887 9.25054 9.51328 9.25038C9.51767 9.25021 9.52206 9.24997 9.52645 9.24965C9.53082 9.24932 9.5352 9.24891 9.53957 9.24842C9.54395 9.24792 9.54831 9.24735 9.55265 9.2467C9.557 9.24605 9.56134 9.2453 9.56565 9.2445C9.56998 9.24368 9.57428 9.24279 9.57857 9.24181C9.58285 9.24084 9.58712 9.23978 9.59137 9.23864C9.59562 9.23751 9.59985 9.2363 9.60406 9.23501C9.60825 9.23371 9.61243 9.23233 9.61659 9.23089C9.62074 9.22944 9.62486 9.22791 9.62896 9.22632C9.63306 9.22472 9.63712 9.22304 9.64116 9.22128C9.64518 9.21953 9.64918 9.21769 9.65315 9.2158C9.65711 9.21389 9.66103 9.21191 9.66492 9.20987C9.66881 9.20782 9.67267 9.20571 9.67649 9.20351C9.68029 9.20132 9.68406 9.19906 9.6878 9.19671C9.69152 9.19438 9.6952 9.19198 9.69885 9.18951C9.76085 9.14752 11.2214 8.14948 11.8019 7.34797C12.0019 7.07195 12.2504 6.72845 12.2504 6.23867C12.2504 5.4179 11.5564 4.75012 10.7031 4.75012Z"   fill="#FF8D1A" fill-opacity="0.2">
</path>
</svg>
