<svg xmlns="http://www.w3.org/2000/svg" xmlns:xlink="http://www.w3.org/1999/xlink" width="16" height="16" viewBox="0 0 16 16" fill="none">
<path d="M12.8938 6.41564C12.8938 4.40157 11.261 2.77032 9.24846 2.77032C8.17815 2.77032 7.21565 3.23126 6.54846 3.96564C6.02502 3.39064 5.32034 2.98282 4.52502 2.83439L4.52502 12.2484L5.35784 13.0813C5.75471 13.4781 6.15159 13.875 6.54846 13.875C6.94534 13.875 7.34221 13.4781 7.73752 13.0813L11.7031 9.11564L11.6969 9.11564C12.4328 8.44845 12.8938 7.48595 12.8938 6.41564Z"   fill="#CB4932" >
</path>
<path d="M3.84844 2.77032C1.83594 2.77032 0.203125 4.40157 0.203125 6.41564C0.203125 7.48595 0.664062 8.44845 1.39844 9.11564L1.39219 9.11564L4.525 12.2484L4.525 2.83439C4.30625 2.7922 4.07969 2.77032 3.84844 2.77032Z"   fill="#D9D9D9" >
</path>
<path d="M12.0547 8.74221L9.38286 8.74221C9.2313 8.74221 9.09224 8.66096 9.01724 8.52971L7.86724 6.50159L6.17817 10.3781C6.12349 10.5047 6.00942 10.5953 5.87505 10.6219C5.84849 10.6266 5.82036 10.6297 5.7938 10.6297C5.68599 10.6297 5.5813 10.5891 5.50161 10.5125L3.35474 8.43909L0.815674 8.43909C0.981299 8.68752 1.17817 8.91565 1.39849 9.11565L1.39224 9.11565L5.35942 13.0813C5.7563 13.4781 6.15317 13.875 6.55005 13.875C6.94692 13.875 7.3438 13.4781 7.73911 13.0813L11.7047 9.11565L11.6985 9.11565C11.8266 9.00002 11.9454 8.87502 12.0547 8.74221Z"   fill="#EA563B" >
</path>
<path d="M0.496875 7.60001L3.52344 7.60001C3.63281 7.60001 3.73594 7.6422 3.81562 7.7172L5.65 9.48907L7.43437 5.39689C7.49844 5.25157 7.63906 5.15314 7.79688 5.14532C7.95469 5.13751 8.10625 5.21876 8.18437 5.35782L9.62813 7.90314L12.5781 7.90314C12.7812 7.44845 12.8953 6.94532 12.8953 6.41564C12.8953 4.40157 11.2625 2.77032 9.25 2.77032C8.17969 2.77032 7.21719 3.23126 6.55 3.96564C5.88281 3.23126 4.92031 2.77032 3.85 2.77032C1.83594 2.77032 0.203125 4.40157 0.203125 6.41564C0.203125 6.83439 0.275 7.23595 0.404687 7.61095C0.434375 7.60314 0.464063 7.60001 0.496875 7.60001Z"   fill="#EA563B" >
</path>
<path d="M15.7406 8.7344L11.3047 8.7344C11.2734 8.7344 11.2484 8.7094 11.2484 8.67815L11.2484 7.95627C11.2484 7.92502 11.2734 7.90002 11.3047 7.90002L15.7406 7.90002C15.7719 7.90002 15.7969 7.92502 15.7969 7.95627L15.7969 8.67815C15.7969 8.7094 15.7719 8.7344 15.7406 8.7344Z"   fill="#CB4932" >
</path>
</svg>
