<svg xmlns="http://www.w3.org/2000/svg" xmlns:xlink="http://www.w3.org/1999/xlink" width="16" height="16" viewBox="0 0 16 16" fill="none">
<path d="M14.0536 0.521502L12.6217 0.521502C12.4517 0.522987 12.3142 0.660424 12.3128 0.830299C12.3128 0.999112 12.453 1.13969 12.6217 1.13969L13.7446 1.13969L13.7446 4.09667L12.9869 4.09667C12.8092 4.09667 12.6776 4.2376 12.6776 4.40592C12.6776 4.57425 12.8182 4.71486 12.9869 4.71486L13.7446 4.71486L13.7446 7.67253L12.9869 7.67253C12.8092 7.67253 12.6776 7.81278 12.6776 7.98147C12.6776 8.15016 12.8182 8.29006 12.9869 8.29006L13.7446 8.29006L13.7446 11.2858L12.9869 11.2858C12.9858 11.2857 12.9845 11.2857 12.9832 11.2857C12.8144 11.2857 12.6776 11.4226 12.6776 11.5914C12.6776 11.5924 12.6776 11.5935 12.6776 11.5945C12.6776 11.772 12.8182 11.9033 12.9869 11.9033L13.7446 11.9033L13.7446 14.861L12.6217 14.861C12.4516 14.8625 12.3141 15.0001 12.3128 15.1701C12.3128 15.3386 12.453 15.4788 12.6217 15.4788L14.0536 15.4788C14.0547 15.4788 14.056 15.4789 14.0572 15.4789C14.2258 15.4789 14.3625 15.3422 14.3625 15.1736C14.3625 15.1724 14.3625 15.1712 14.3625 15.1701L14.3625 0.83044C14.3607 0.660565 14.2234 0.523331 14.0537 0.521502L14.0536 0.521502ZM8.98995 5.27619C8.53638 4.7763 7.88475 4.46317 7.15994 4.46152L5.77925 4.46153C5.05506 4.46261 4.40439 4.77649 3.95495 5.27524L1.71718 7.74731C1.60473 7.86871 1.61398 8.05625 1.72645 8.17797L2.48456 8.93574C2.54134 8.99364 2.62037 9.02953 2.70779 9.02953C2.71164 9.02953 2.71547 9.02946 2.71928 9.02933C2.80308 9.02935 2.88742 8.99199 2.94365 8.92616L4.5442 7.09177L4.5442 15.1785C4.5442 15.3469 4.68445 15.4875 4.85314 15.4875L5.93869 15.4875C6.10738 15.4875 6.24763 15.3469 6.24763 15.1785L6.24763 10.4708L6.6968 10.4708L6.6968 15.1789C6.6968 15.3472 6.83738 15.4878 7.00605 15.4878L8.09161 15.4878C8.26028 15.4878 8.40055 15.3472 8.40055 15.1789L8.40055 7.09208L10.0011 8.92647C10.0573 8.99197 10.1417 9.02967 10.2257 9.02967C10.3103 9.03894 10.3947 9.00122 10.4599 8.93606L11.218 8.1783C11.2751 8.1223 11.3105 8.04432 11.3105 7.95807C11.3105 7.87663 11.279 7.80257 11.2274 7.74747L8.98995 5.27622L8.98995 5.27619ZM10.2528 8.27124L8.32478 6.06239C8.26608 5.99827 8.182 5.95819 8.08856 5.95819C8.04906 5.95819 8.01122 5.96535 7.97628 5.97846C7.85844 6.0226 7.77422 6.13566 7.77274 6.26861L7.77275 14.8696L7.32356 14.8696L7.32356 10.1619C7.32191 9.99203 7.18475 9.85477 7.01513 9.85292L5.93833 9.85292C5.76838 9.85442 5.63102 9.99189 5.62974 10.1617L5.62974 14.8696L5.18058 14.8696L5.18058 6.2678C5.17866 6.13455 5.09383 6.0216 4.97544 5.97808C4.94139 5.96527 4.9035 5.95805 4.86391 5.95805C4.7705 5.95805 4.68647 5.99817 4.62809 6.06213L2.69986 8.27122L2.38167 7.95303L4.4218 5.69755C4.76017 5.32353 5.24728 5.08949 5.78903 5.08928L7.17372 5.08928C7.68839 5.08928 8.19345 5.31353 8.53977 5.69755L10.5713 7.95302L10.2528 8.27121L10.2528 8.27124ZM6.47186 4.01269C7.43783 4.01081 8.22038 3.22825 8.22225 2.26249C8.22038 1.29642 7.43778 0.51394 6.47203 0.512268C5.50603 0.513971 4.72352 1.29647 4.72183 2.26216C4.72183 2.26311 4.72183 2.26403 4.72183 2.26497C4.72183 3.23022 5.50431 4.01271 6.46956 4.01271C6.47038 4.01271 6.47119 4.01271 6.47202 4.01271L6.47186 4.01269ZM6.47186 1.14863C7.09147 1.1505 7.59325 1.6523 7.59511 2.27172C7.59324 2.8915 7.09145 3.39328 6.47203 3.39516C5.85224 3.39328 5.35045 2.8915 5.34858 2.27208C5.35045 1.65228 5.85224 1.15049 6.47167 1.14863L6.47186 1.14863Z"   fill="#43CF7C" >
</path>
</svg>
