<svg xmlns="http://www.w3.org/2000/svg" xmlns:xlink="http://www.w3.org/1999/xlink" width="9.4068603515625" height="16.761390686035156" viewBox="0 0 9.4068603515625 16.761390686035156" fill="none">
<path d="M0.776449 16.7614C0.788293 16.761 0.800137 16.7604 0.811942 16.7595C0.823766 16.7585 0.835551 16.7573 0.847318 16.7558C0.859063 16.7543 0.87077 16.7524 0.88244 16.7503C0.894108 16.7482 0.905717 16.7459 0.917269 16.7432C0.92882 16.7405 0.940292 16.7375 0.951708 16.7343C0.963122 16.7311 0.974439 16.7275 0.985659 16.7237C0.996878 16.7199 1.00802 16.7158 1.01904 16.7115C1.03007 16.7071 1.041 16.7025 1.05179 16.6976C1.06258 16.6927 1.07325 16.6876 1.08381 16.6821C1.09434 16.6767 1.10474 16.671 1.11502 16.6651C1.12529 16.6591 1.1354 16.653 1.14535 16.6465C1.15532 16.6401 1.16511 16.6334 1.17473 16.6265C1.18435 16.6195 1.19381 16.6124 1.20308 16.605C1.21235 16.5976 1.22144 16.59 1.23034 16.5821C1.23924 16.5743 1.24794 16.5663 1.25645 16.558C1.26494 16.5497 1.27323 16.5412 1.28131 16.5325L9.40686 8.42766L1.28131 0.279873C1.27364 0.269855 1.2657 0.260047 1.2575 0.250447C1.24931 0.24085 1.24086 0.231477 1.23216 0.222324C1.22347 0.213174 1.21454 0.20426 1.20537 0.195582C1.19621 0.186906 1.18683 0.178478 1.17721 0.1703C1.16759 0.16212 1.15778 0.154201 1.14775 0.146542C1.13772 0.138884 1.12749 0.131497 1.11707 0.12438C1.10665 0.117264 1.09606 0.110429 1.08527 0.103874C1.07448 0.0973191 1.06353 0.0910555 1.05243 0.085083C1.04131 0.079109 1.03005 0.0734338 1.01863 0.0680574C1.00722 0.062681 0.995668 0.0576109 0.98398 0.0528465C0.972293 0.0480822 0.960507 0.0436311 0.948586 0.039493C0.936664 0.0353551 0.924644 0.0315353 0.912527 0.028034C0.90041 0.024534 0.888195 0.021357 0.875902 0.0185028C0.86361 0.0156486 0.851258 0.0131226 0.838829 0.0109246C0.8264 0.00872553 0.813932 0.00685691 0.801425 0.00531926C0.788898 0.00378281 0.776352 0.00257834 0.763766 0.00170588C0.751181 0.000834912 0.738576 0.000297129 0.725971 9.26851e-05C0.713346 -0.000110418 0.700742 2.04146e-05 0.688137 0.000485182C0.675532 0.000950098 0.662947 0.00174895 0.650381 0.00288174C0.637815 0.00401318 0.625288 0.00547736 0.612801 0.0072743C0.600312 0.00907123 0.587883 0.0111975 0.575513 0.0136532C0.563142 0.0161089 0.550849 0.0188902 0.538615 0.0219969C0.526381 0.0251051 0.514244 0.0285348 0.502206 0.0322861C0.490167 0.0360373 0.478225 0.0401051 0.466381 0.0444893C0.454556 0.0488746 0.442849 0.0535697 0.431259 0.0585752C0.419688 0.0635803 0.408235 0.0688883 0.396937 0.074499C0.38564 0.0801109 0.374498 0.0860184 0.363513 0.0922215C0.352528 0.0984246 0.341699 0.104914 0.331064 0.11169C0.320411 0.118466 0.309952 0.12552 0.299688 0.13285C0.289406 0.140181 0.279337 0.147779 0.269464 0.155643C0.25961 0.163508 0.249952 0.171629 0.240508 0.180007C0.231064 0.188383 0.221854 0.197004 0.212879 0.205867C0.203884 0.214734 0.195143 0.22383 0.186635 0.233158C0.178147 0.242488 0.169893 0.252035 0.161894 0.261801C0.153893 0.271568 0.146167 0.281539 0.138694 0.291715C0.131221 0.301891 0.12404 0.312258 0.117113 0.322816C0.110187 0.333375 0.103552 0.344107 0.0971909 0.355016C0.0908499 0.365922 0.0847816 0.376994 0.0790253 0.38823C0.0732498 0.399455 0.0677862 0.410828 0.0626154 0.422352C0.0574446 0.433875 0.0526056 0.445529 0.0480595 0.457312C0.0435133 0.469084 0.039279 0.480973 0.0353575 0.492977C0.031435 0.504982 0.0278254 0.517078 0.0245476 0.529266C0.0212688 0.541467 0.0183229 0.553738 0.0156889 0.566082C0.0130548 0.578439 0.0107527 0.590855 0.00878143 0.603328C0.00681114 0.615789 0.00517178 0.628303 0.00386429 0.640867C0.0025568 0.65342 0.00158119 0.666004 0.000937462 0.678621C0.000293732 0.691238 -1.81198e-05 0.703855 9.53674e-07 0.716473C2.09808e-05 0.729103 0.000391006 0.741721 0.00107384 0.754324C0.00175667 0.766941 0.0027914 0.779527 0.00415707 0.792078C0.00550365 0.804631 0.00720119 0.817137 0.00921059 0.829598C0.0112209 0.842072 0.0135813 0.854475 0.0162544 0.866805C0.0189276 0.879148 0.0219326 0.891414 0.0252495 0.903601C0.0285864 0.915777 0.0322351 0.927859 0.0361958 0.939852C0.0401573 0.951846 0.0444298 0.963719 0.0490351 0.975477C0.0536203 0.987234 0.0585184 0.998863 0.0637274 1.01036C0.0689373 1.02187 0.07444 1.03322 0.0802546 1.04442C0.08605 1.05563 0.0921574 1.06668 0.0985575 1.07757C0.104938 1.08845 0.11163 1.09916 0.118596 1.1097C0.125562 1.12023 0.132781 1.13057 0.140293 1.14071C0.147806 1.15087 0.155572 1.16082 0.163591 1.17055C0.17163 1.18028 0.179923 1.18979 0.18845 1.19909C0.196996 1.20839 0.205776 1.21745 0.214791 1.22628C0.223805 1.23512 0.233054 1.24371 0.242517 1.25204C0.251982 1.26039 0.261679 1.26847 0.271571 1.2763L7.38739 8.42766L0.271571 15.5361C0.265425 15.5424 0.259377 15.5487 0.253464 15.5552C0.247552 15.5617 0.241756 15.5682 0.236079 15.5749C0.230401 15.5816 0.22484 15.5884 0.219396 15.5953C0.213971 15.6021 0.208664 15.6091 0.203493 15.6162C0.198323 15.6233 0.193269 15.6304 0.188352 15.6377C0.183435 15.645 0.178655 15.6523 0.17401 15.6597C0.169367 15.6672 0.16486 15.6747 0.160489 15.6823C0.156118 15.6899 0.151884 15.6976 0.147786 15.7053C0.143689 15.7131 0.139748 15.7209 0.135942 15.7288C0.132137 15.7367 0.128469 15.7447 0.124957 15.7527C0.121445 15.7608 0.11807 15.7688 0.11485 15.777C0.11163 15.7852 0.108567 15.7934 0.10564 15.8016C0.102733 15.8099 0.0999622 15.8182 0.0973473 15.8266C0.0947323 15.835 0.0922737 15.8434 0.0899525 15.8519C0.0876493 15.8603 0.0855036 15.8688 0.0834932 15.8773C0.0814838 15.8859 0.0796499 15.8945 0.0779715 15.9031C0.0762739 15.9117 0.0747519 15.9203 0.0733862 15.929C0.0720205 15.9376 0.0708103 15.9463 0.0697575 15.955C0.0687037 15.9637 0.0678062 15.9725 0.0670643 15.9812C0.0663424 15.9899 0.0657568 15.9987 0.0653477 16.0074C0.0649376 16.0162 0.0646839 16.025 0.0645866 16.0337C0.0644884 16.0425 0.0645666 16.0513 0.0647812 16.0601C0.0649958 16.0688 0.0653868 16.0776 0.0659323 16.0863C0.0664787 16.0951 0.0671816 16.1038 0.0680599 16.1126C0.0689182 16.1213 0.0699329 16.13 0.0711231 16.1387C0.0723133 16.1474 0.0736399 16.1561 0.0751429 16.1647C0.0766449 16.1733 0.0783033 16.1819 0.0801182 16.1905C0.081933 16.1991 0.0838842 16.2076 0.0860109 16.2162C0.0881376 16.2247 0.0904207 16.2331 0.0928593 16.2416C0.0952988 16.25 0.0978737 16.2584 0.100625 16.2667C0.103376 16.275 0.106264 16.2833 0.109308 16.2915C0.112332 16.2997 0.115533 16.3079 0.118869 16.316C0.122206 16.3241 0.125698 16.3322 0.129347 16.3402C0.132977 16.3481 0.136762 16.3561 0.140684 16.3639C0.144606 16.3717 0.148664 16.3795 0.152879 16.3872C0.157074 16.3949 0.161426 16.4025 0.165913 16.41C0.170401 16.4176 0.175025 16.425 0.179767 16.4324C0.184527 16.4397 0.189425 16.447 0.19444 16.4542C0.199454 16.4614 0.204606 16.4685 0.209893 16.4755C0.215181 16.4825 0.220586 16.4894 0.226128 16.4962C0.231649 16.503 0.237309 16.5097 0.243084 16.5163C0.248878 16.5229 0.254771 16.5294 0.260781 16.5357C0.26681 16.5421 0.272938 16.5484 0.279161 16.5545C0.285425 16.5607 0.291766 16.5667 0.298225 16.5726C0.304684 16.5786 0.311259 16.5844 0.317952 16.59C0.324625 16.5957 0.331396 16.6013 0.338284 16.6067C0.345152 16.6121 0.352118 16.6175 0.3592 16.6226C0.366283 16.6278 0.373445 16.6329 0.380703 16.6378C0.387961 16.6427 0.395298 16.6475 0.402732 16.6521C0.410167 16.6568 0.417679 16.6612 0.425269 16.6656C0.432859 16.67 0.440547 16.6742 0.448294 16.6783C0.456039 16.6824 0.463864 16.6864 0.471766 16.6902C0.479669 16.694 0.48763 16.6976 0.495649 16.7012C0.503669 16.7047 0.511766 16.708 0.519922 16.7112C0.528059 16.7145 0.536274 16.7175 0.544547 16.7204C0.5528 16.7234 0.561112 16.7261 0.569484 16.7287C0.577854 16.7313 0.586264 16.7338 0.594712 16.7361C0.603162 16.7384 0.61165 16.7406 0.620176 16.7426C0.628703 16.7445 0.637269 16.7464 0.645874 16.7481C0.654478 16.7498 0.663122 16.7513 0.671766 16.7527C0.68041 16.754 0.689093 16.7552 0.697796 16.7563C0.706498 16.7573 0.715219 16.7582 0.723942 16.7589C0.732664 16.7597 0.741405 16.7602 0.750166 16.7606C0.758927 16.7611 0.767688 16.7613 0.776449 16.7614Z"   fill="#707070" >
</path>
</svg>
