<?xml version="1.0" standalone="no"?><!DOCTYPE svg PUBLIC "-//W3C//DTD SVG 1.1//EN" "http://www.w3.org/Graphics/SVG/1.1/DTD/svg11.dtd"><svg t="1717730961056" class="icon" viewBox="0 0 1024 1024" version="1.1" xmlns="http://www.w3.org/2000/svg" p-id="2246" xmlns:xlink="http://www.w3.org/1999/xlink" width="200" height="200"><path d="M415.475842 815.74671a407.873355 407.873355 0 1 1 407.873355-407.873355 408.370231 408.370231 0 0 1-407.873355 407.873355z m0-745.314491A337.441135 337.441135 0 1 0 752.916977 407.873355a337.813793 337.813793 0 0 0-337.441135-337.441136z" fill="#8a8a8a" p-id="2247"></path><path d="M981.16954 1024a35.21611 35.21611 0 0 1-24.843816-10.496512l-307.752775-312.224662a35.21611 35.21611 0 1 1 50.184509-49.687633l307.504337 312.224662a35.21611 35.21611 0 0 1-24.843817 59.935707z" fill="#8a8a8a" p-id="2248"></path></svg>