<?xml version="1.0" standalone="no"?><!DOCTYPE svg PUBLIC "-//W3C//DTD SVG 1.1//EN" "http://www.w3.org/Graphics/SVG/1.1/DTD/svg11.dtd"><svg t="1717729750747" class="icon" viewBox="0 0 1048 1024" version="1.1" xmlns="http://www.w3.org/2000/svg" p-id="1897" xmlns:xlink="http://www.w3.org/1999/xlink" width="204.6875" height="200"><path d="M906.723624 1024H139.80777A140.090591 140.090591 0 0 1 0 884.097956V252.936108A140.090591 140.090591 0 0 1 139.80777 113.128337h766.915854A140.090591 140.090591 0 0 1 1046.43712 252.936108v631.633216a140.090591 140.090591 0 0 1-139.713496 139.430676zM139.80777 166.581477a86.448904 86.448904 0 0 0-86.354631 86.354631v631.633216a86.448904 86.448904 0 0 0 86.354631 86.448905h766.915854a86.543178 86.543178 0 0 0 86.448904-86.448905v-631.633216a86.448904 86.448904 0 0 0-86.448904-86.354631z" fill="#231815" p-id="1898"></path><path d="M270.565273 279.709814a26.773706 26.773706 0 0 1-26.773706-26.773706v-226.256675a26.773706 26.773706 0 0 1 53.453139 0v226.256675a26.773706 26.773706 0 0 1-26.679433 26.773706zM776.060394 279.709814a26.773706 26.773706 0 0 1-26.773706-26.773706v-226.256675a26.773706 26.773706 0 0 1 53.453139 0v226.256675a26.773706 26.773706 0 0 1-26.679433 26.773706zM1019.851961 419.611858H26.679433a26.773706 26.773706 0 0 1 0-53.45314h993.172528a26.773706 26.773706 0 1 1 0 53.45314z" fill="#231815" p-id="1899"></path><path d="M218.149144 599.674461m-56.564169 0a56.564169 56.564169 0 1 0 113.128337 0 56.564169 56.564169 0 1 0-113.128337 0Z" fill="#231815" p-id="1900"></path><path d="M527.460873 599.674461m-56.564169 0a56.564169 56.564169 0 1 0 113.128337 0 56.564169 56.564169 0 1 0-113.128337 0Z" fill="#231815" p-id="1901"></path><path d="M836.772602 599.674461m-56.564169 0a56.564169 56.564169 0 1 0 113.128337 0 56.564169 56.564169 0 1 0-113.128337 0Z" fill="#231815" p-id="1902"></path><path d="M218.149144 815.372491m-56.564169 0a56.564169 56.564169 0 1 0 113.128337 0 56.564169 56.564169 0 1 0-113.128337 0Z" fill="#231815" p-id="1903"></path><path d="M527.460873 815.372491m-56.564169 0a56.564169 56.564169 0 1 0 113.128337 0 56.564169 56.564169 0 1 0-113.128337 0Z" fill="#231815" p-id="1904"></path></svg>