<?xml version="1.0" standalone="no"?><!DOCTYPE svg PUBLIC "-//W3C//DTD SVG 1.1//EN" "http://www.w3.org/Graphics/SVG/1.1/DTD/svg11.dtd"><svg t="1717729756720" class="icon" viewBox="0 0 1024 1024" version="1.1" xmlns="http://www.w3.org/2000/svg" p-id="2077" xmlns:xlink="http://www.w3.org/1999/xlink" width="200" height="200"><path d="M816.898162 452.610035H394.17387a36.117238 36.117238 0 0 1 0-72.107303h422.724292a36.117238 36.117238 0 0 1 0 72.107303z" fill="#231815" p-id="2078"></path><path d="M605.536016 664.735221a35.990065 35.990065 0 0 1-35.990065-35.990065V206.402385a36.117238 36.117238 0 0 1 72.107303 0v422.342771a36.117238 36.117238 0 0 1-36.117238 35.990065z" fill="#231815" p-id="2079"></path><path d="M723.680079 1024h-610.43219A112.421262 112.421262 0 0 1 0.826627 911.578738v-610.432191a112.421262 112.421262 0 0 1 112.294088-112.294088h114.456036v72.107303h-114.456036a40.313959 40.313959 0 0 0-40.186786 40.186785v610.432191a40.313959 40.313959 0 0 0 40.31396 40.313959h610.43219A40.313959 40.313959 0 0 0 763.866865 911.705912v-117.381024h72.107303v117.381024a112.421262 112.421262 0 0 1-112.294089 112.294088z" p-id="2080"></path><path d="M910.752111 835.147541h-610.43219a112.421262 112.421262 0 0 1-112.294089-112.421262v-610.432191A112.421262 112.421262 0 0 1 300.319921 0h610.43219a112.548435 112.548435 0 0 1 112.421262 112.294088v610.432191a112.548435 112.548435 0 0 1-112.421262 112.421262z m-610.43219-763.040238a40.313959 40.313959 0 0 0-40.186786 40.186785v610.432191A40.313959 40.313959 0 0 0 300.319921 763.040238h610.43219a40.313959 40.313959 0 0 0 40.31396-40.313959v-610.432191a40.313959 40.313959 0 0 0-40.31396-40.186785z" p-id="2081"></path></svg>